<?xml version="1.0" encoding="UTF-8" standalone="no"?>
<!-- Created with Inkscape (http://www.inkscape.org/) -->

<svg
   xmlns:dc="http://purl.org/dc/elements/1.1/"
   xmlns:cc="http://creativecommons.org/ns#"
   xmlns:rdf="http://www.w3.org/1999/02/22-rdf-syntax-ns#"
   xmlns:svg="http://www.w3.org/2000/svg"
   xmlns="http://www.w3.org/2000/svg"
   xmlns:sodipodi="http://sodipodi.sourceforge.net/DTD/sodipodi-0.dtd"
   xmlns:inkscape="http://www.inkscape.org/namespaces/inkscape"
   width="744.09448819"
   height="1052.3622047"
   id="svg2"
   version="1.1"
   inkscape:version="0.48.2 r9819"
   sodipodi:docname="bomberman.svg">
  <defs
     id="defs4" />
  <sodipodi:namedview
     id="base"
     pagecolor="#ffffff"
     bordercolor="#666666"
     borderopacity="1.0"
     inkscape:pageopacity="0.0"
     inkscape:pageshadow="2"
     inkscape:zoom="0.35"
     inkscape:cx="813.68652"
     inkscape:cy="138.23497"
     inkscape:document-units="px"
     inkscape:current-layer="layer1"
     showgrid="false"
     inkscape:window-width="1920"
     inkscape:window-height="999"
     inkscape:window-x="-3"
     inkscape:window-y="25"
     inkscape:window-maximized="1" />
  <metadata
     id="metadata7">
    <rdf:RDF>
      <cc:Work
         rdf:about="">
        <dc:format>image/svg+xml</dc:format>
        <dc:type
           rdf:resource="http://purl.org/dc/dcmitype/StillImage" />
        <dc:title></dc:title>
      </cc:Work>
    </rdf:RDF>
  </metadata>
  <g
     inkscape:label="Layer 1"
     inkscape:groupmode="layer"
     id="layer1">
    <path
       style="fill:#ececec;stroke:#000000;stroke-width:1px;stroke-linecap:butt;stroke-linejoin:miter;stroke-opacity:1"
       d="m 460.71429,988.79075 c 208.57143,-74.28571 227.85714,-88.57143 227.85714,-88.57143 0,0 -17.14286,-20 -15.71429,-34.28571 -100.71428,27.85715 -229.28571,85 -229.28571,85 z"
       id="path3102"
       inkscape:connector-curvature="0"
       sodipodi:nodetypes="ccccc" />
    <path
       sodipodi:type="arc"
       style="fill:none;fill-opacity:1;stroke:#000000;stroke-width:7.67626929"
       id="path3924"
       sodipodi:cx="92.5"
       sodipodi:cy="868.79077"
       sodipodi:rx="74.64286"
       sodipodi:ry="71.428574"
       d="m 167.14286,868.79077 a 74.64286,71.428574 0 1 1 -149.28572,0 74.64286,71.428574 0 1 1 149.28572,0 z"
       transform="matrix(1.0861244,0,0,1,607.74778,5.7142857)" />
    <path
       style="fill:#ececec;stroke:#000000;stroke-width:1px;stroke-linecap:butt;stroke-linejoin:miter;stroke-opacity:1"
       d="m 391.42771,1048.8251 c -123.095,184.0327 -141.66813,199.2333 -141.66813,199.2333 0,0 -15.19358,-21.5182 -29.39421,-23.6311 51.66997,-90.8273 138.55525,-201.4929 138.55525,-201.4929 z"
       id="path3106"
       inkscape:connector-curvature="0"
       sodipodi:nodetypes="ccccc" />
    <path
       style="fill:#000000;stroke:none;stroke-width:1px;stroke-linecap:butt;stroke-linejoin:miter;stroke-opacity:1;fill-opacity:0.33725491"
       d="M 387.15625 1045.4062 L 245.25 1242.3438 C 248.0435 1245.6267 249.75 1248.0625 249.75 1248.0625 C 249.75 1248.0625 268.3425 1232.8452 391.4375 1048.8125 L 387.15625 1045.4062 z "
       id="path3958" />
    <path
       sodipodi:nodetypes="ccccc"
       inkscape:connector-curvature="0"
       id="path3104"
       d="M 341.42857,1005.2193 C 132.85714,930.93361 113.57143,916.64789 113.57143,916.64789 c 0,0 17.14286,-20 15.71429,-34.28571 100.71428,27.85715 229.28571,85 229.28571,85 z"
       style="fill:#ececec;stroke:#000000;stroke-width:1px;stroke-linecap:butt;stroke-linejoin:miter;stroke-opacity:1" />
    <path
       transform="matrix(1.0861244,0,0,1,-31.537935,5.7142857)"
       d="m 167.14286,868.79077 a 74.64286,71.428574 0 1 1 -149.28572,0 74.64286,71.428574 0 1 1 149.28572,0 z"
       sodipodi:ry="71.428574"
       sodipodi:rx="74.64286"
       sodipodi:cy="868.79077"
       sodipodi:cx="92.5"
       id="path3916"
       style="fill:none;fill-opacity:1;stroke:#000000;stroke-width:7.67626929"
       sodipodi:type="arc" />
    <path
       sodipodi:nodetypes="ccccc"
       inkscape:connector-curvature="0"
       id="path3108"
       d="m 400.36537,1048.8251 c 123.095,184.0327 141.66813,199.2333 141.66813,199.2333 0,0 15.19358,-21.5182 29.39421,-23.6311 C 519.75774,1133.6 432.87246,1022.9344 432.87246,1022.9344 z"
       style="fill:#ececec;stroke:#000000;stroke-width:1px;stroke-linecap:butt;stroke-linejoin:miter;stroke-opacity:1" />
    <path
       id="path3939"
       d="M 585 1198.0625 C 534.89988 1198.0625 494.28125 1230.0511 494.28125 1269.5 C 494.28125 1281.1509 497.84167 1292.1586 504.125 1301.875 C 562.23361 1308.6025 624.94178 1298.2448 673.15625 1286.4375 C 674.83387 1281.0068 675.71875 1275.3372 675.71875 1269.5 C 675.71875 1230.0511 635.10012 1198.0625 585 1198.0625 z "
       style="fill:none;fill-opacity:1;stroke:#000000;stroke-width:8" />
    <path
       style="fill:#000000;stroke:none;stroke-width:1px;stroke-linecap:butt;stroke-linejoin:miter;stroke-opacity:1;fill-opacity:0.328125"
       d="M 123.84375 901.59375 C 119.28812 909.97982 113.5625 916.65625 113.5625 916.65625 C 113.5625 916.65625 132.86607 930.93306 341.4375 1005.2188 L 349.09375 988.3125 C 311.80734 975.47055 244.59294 950.42296 123.84375 901.59375 z "
       id="path3941" />
    <path
       style="fill:#000000;stroke:none;stroke-width:1px;stroke-linecap:butt;stroke-linejoin:miter;stroke-opacity:1;fill-opacity:0.32941177"
       d="M 678.15625 884.90625 C 646.24895 902.35655 586.00936 928.30297 453.53125 972.9375 L 460.71875 988.78125 C 669.29018 914.49554 688.5625 900.21875 688.5625 900.21875 C 688.5625 900.21875 682.73349 893.41144 678.15625 884.90625 z "
       id="path3948" />
    <path
       style="fill:#000000;stroke:none;stroke-width:1px;stroke-linecap:butt;stroke-linejoin:miter;stroke-opacity:1;fill-opacity:0.33725491"
       d="M 405.46875 1044.7812 L 400.375 1048.8125 C 523.47 1232.8452 542.03125 1248.0625 542.03125 1248.0625 C 542.03125 1248.0625 545.28635 1243.4788 550.15625 1238.3438 C 523.00076 1206.2241 478.29159 1148.452 405.46875 1044.7812 z "
       id="path3953" />
    <path
       sodipodi:type="arc"
       style="fill:#0000af;stroke:#000000;stroke-width:4;stroke-opacity:1;fill-opacity:1"
       id="path3085"
       sodipodi:cx="406.07144"
       sodipodi:cy="998.79077"
       sodipodi:rx="131.78572"
       sodipodi:ry="137.14285"
       d="m 537.85716,998.79077 a 131.78572,137.14285 0 1 1 -263.57144,0 131.78572,137.14285 0 1 1 263.57144,0 z"
       transform="matrix(1.0888889,0,0,1,-49.380952,-7.1428574)" />
    <path
       inkscape:connector-curvature="0"
       id="path3083"
       d="m 175.71875,803.02551 c 0.0132,0.0652 0.0179,0.13385 0.0312,0.19898 0.65898,3.22273 1.46462,6.38497 2.40625,9.48469 0.94163,3.09972 2.04096,6.12624 3.25,9.08674 1.20904,2.9605 2.5388,5.85054 4,8.65561 1.4612,2.80507 3.05189,5.52474 4.75,8.15816 1.69811,2.63343 3.51773,5.18198 5.4375,7.62755 1.91977,2.44558 3.93632,4.78912 6.0625,7.03062 2.12618,2.24149 4.3389,4.3793 6.65625,6.40051 2.31735,2.02121 4.72548,3.91936 7.21875,5.70408 2.49327,1.78471 5.09606,3.44248 7.75,4.97449 2.65394,1.532 5.35689,2.94865 8.15625,4.21173 2.79936,1.26308 5.69546,2.37154 8.625,3.34949 1.87452,0.62576 3.79605,1.08827 5.71875,1.59184 l 293.4375,0 c 1.92632,-0.50427 3.87204,-0.96493 5.75,-1.59184 2.92954,-0.97795 5.79439,-2.08641 8.59375,-3.34949 2.79936,-1.26308 5.53356,-2.67973 8.1875,-4.21173 2.65394,-1.53201 5.22548,-3.18978 7.71875,-4.97449 2.49327,-1.78472 4.9014,-3.68287 7.21875,-5.70408 2.31735,-2.02121 4.56132,-4.15902 6.6875,-6.40051 2.12618,-2.2415 4.14273,-4.58504 6.0625,-7.03062 1.91977,-2.44557 3.73939,-4.99412 5.4375,-7.62755 1.69811,-2.63342 3.2888,-5.35309 4.75,-8.15816 0.13487,-0.25892 0.24222,-0.53562 0.375,-0.79592 l 0,-195.09949 c -0.3796,-0.7758 -0.69586,-1.59076 -1.09375,-2.35459 -1.4612,-2.80507 -3.05189,-5.52473 -4.75,-8.15816 -1.69811,-2.63343 -3.51773,-5.18198 -5.4375,-7.62755 -1.91977,-2.44557 -3.93632,-4.78912 -6.0625,-7.03062 -2.12618,-2.24149 -4.37015,-4.3793 -6.6875,-6.40051 -2.31735,-2.0212 -4.72548,-3.91936 -7.21875,-5.70408 -2.49327,-1.78471 -5.06481,-3.47565 -7.71875,-5.00765 -2.65394,-1.53201 -5.38814,-2.91549 -8.1875,-4.17857 -2.79936,-1.26308 -5.66421,-2.40471 -8.59375,-3.38266 -2.77623,-0.92676 -5.6202,-1.69807 -8.5,-2.35459 l -289.34375,0 c -2.8798,0.65652 -5.72377,1.42783 -8.5,2.35459 -2.92954,0.97795 -5.79439,2.11958 -8.59375,3.38266 -2.79936,1.26308 -5.53356,2.64656 -8.1875,4.17857 -2.65394,1.532 -5.22548,3.22294 -7.71875,5.00765 -2.49327,1.78472 -4.9014,3.68288 -7.21875,5.70408 -2.31735,2.02121 -4.56132,4.15902 -6.6875,6.40051 -2.12618,2.2415 -4.14273,4.58505 -6.0625,7.03062 -1.91977,2.44557 -3.73939,4.99412 -5.4375,7.62755 -1.69811,2.63343 -3.2888,5.35309 -4.75,8.15816 -1.4612,2.80507 -2.79096,5.69511 -4,8.65561 -1.20904,2.9605 -2.27712,5.98702 -3.21875,9.08674 -0.12185,0.40112 -0.19527,0.82374 -0.3125,1.22704 l 0,151.85459 z"
       style="fill:none;fill-opacity:1;stroke:#000000;stroke-width:8" />
    <path
       style="fill:#ececec;fill-opacity:1;stroke:none"
       d="m 175.71875,803.02551 c 0.0132,0.0652 0.0179,0.13385 0.0312,0.19898 0.65898,3.22273 1.46462,6.38497 2.40625,9.48469 0.94163,3.09972 2.04096,6.12624 3.25,9.08674 1.20904,2.9605 2.5388,5.85054 4,8.65561 1.4612,2.80507 3.05189,5.52474 4.75,8.15816 1.69811,2.63343 3.51773,5.18198 5.4375,7.62755 1.91977,2.44558 3.93632,4.78912 6.0625,7.03062 2.12618,2.24149 4.3389,4.3793 6.65625,6.40051 2.31735,2.02121 4.72548,3.91936 7.21875,5.70408 2.49327,1.78471 5.09606,3.44248 7.75,4.97449 2.65394,1.532 5.35689,2.94865 8.15625,4.21173 2.79936,1.26308 5.69546,2.37154 8.625,3.34949 1.87452,0.62576 3.79605,1.08827 5.71875,1.59184 l 293.4375,0 c 1.92632,-0.50427 3.87204,-0.96493 5.75,-1.59184 2.92954,-0.97795 5.79439,-2.08641 8.59375,-3.34949 2.79936,-1.26308 5.53356,-2.67973 8.1875,-4.21173 2.65394,-1.53201 5.22548,-3.18978 7.71875,-4.97449 2.49327,-1.78472 4.9014,-3.68287 7.21875,-5.70408 2.31735,-2.02121 4.56132,-4.15902 6.6875,-6.40051 2.12618,-2.2415 4.14273,-4.58504 6.0625,-7.03062 1.91977,-2.44557 3.73939,-4.99412 5.4375,-7.62755 1.69811,-2.63342 3.2888,-5.35309 4.75,-8.15816 0.13487,-0.25892 0.24222,-0.53562 0.375,-0.79592 l 0,-195.09949 c -0.3796,-0.7758 -0.69586,-1.59076 -1.09375,-2.35459 -1.4612,-2.80507 -3.05189,-5.52473 -4.75,-8.15816 -1.69811,-2.63343 -3.51773,-5.18198 -5.4375,-7.62755 -1.91977,-2.44557 -3.93632,-4.78912 -6.0625,-7.03062 -2.12618,-2.24149 -4.37015,-4.3793 -6.6875,-6.40051 -2.31735,-2.0212 -4.72548,-3.91936 -7.21875,-5.70408 -2.49327,-1.78471 -5.06481,-3.47565 -7.71875,-5.00765 -2.65394,-1.53201 -5.38814,-2.91549 -8.1875,-4.17857 -2.79936,-1.26308 -5.66421,-2.40471 -8.59375,-3.38266 -2.77623,-0.92676 -5.6202,-1.69807 -8.5,-2.35459 l -289.34375,0 c -2.8798,0.65652 -5.72377,1.42783 -8.5,2.35459 -2.92954,0.97795 -5.79439,2.11958 -8.59375,3.38266 -2.79936,1.26308 -5.53356,2.64656 -8.1875,4.17857 -2.65394,1.532 -5.22548,3.22294 -7.71875,5.00765 -2.49327,1.78472 -4.9014,3.68288 -7.21875,5.70408 -2.31735,2.02121 -4.56132,4.15902 -6.6875,6.40051 -2.12618,2.2415 -4.14273,4.58505 -6.0625,7.03062 -1.91977,2.44557 -3.73939,4.99412 -5.4375,7.62755 -1.69811,2.63343 -3.2888,5.35309 -4.75,8.15816 -1.4612,2.80507 -2.79096,5.69511 -4,8.65561 -1.20904,2.9605 -2.27712,5.98702 -3.21875,9.08674 -0.12185,0.40112 -0.19527,0.82374 -0.3125,1.22704 l 0,151.85459 z"
       id="rect3001"
       inkscape:connector-curvature="0" />
    <path
       inkscape:connector-curvature="0"
       id="path3075"
       d="m 230.00445,773.79863 c 0.01,0.0475 0.0135,0.0975 0.0234,0.14493 0.49479,2.34732 1.0997,4.65059 1.80671,6.90832 0.70702,2.25772 1.53243,4.46214 2.44023,6.61847 0.90779,2.15632 1.90623,4.26133 3.00336,6.30444 1.09712,2.04312 2.29148,4.02404 3.56648,5.94213 1.27501,1.9181 2.64126,3.77437 4.08269,5.55563 1.44144,1.78129 2.95554,3.48824 4.55196,5.12086 1.59642,1.63263 3.25782,3.18974 4.99777,4.66192 1.73996,1.47218 3.54808,2.85473 5.42013,4.15465 1.87203,1.29992 3.82631,2.50738 5.819,3.62325 1.99268,1.11585 4.02216,2.14769 6.12403,3.06767 2.10187,0.91998 4.27637,1.72736 6.47599,2.43966 1.40746,0.45579 2.85022,0.79266 4.29387,1.15944 l 220.32434,0 c 1.44636,-0.36729 2.90729,-0.70282 4.31734,-1.15944 2.1996,-0.7123 4.35065,-1.51968 6.45251,-2.43966 2.10188,-0.91998 4.15482,-1.95182 6.14749,-3.06767 1.99269,-1.11587 3.92351,-2.32333 5.79555,-3.62325 1.87204,-1.29992 3.68017,-2.68247 5.42012,-4.15465 1.73996,-1.47218 3.42482,-3.02929 5.02124,-4.66192 1.59641,-1.63262 3.11053,-3.33957 4.55196,-5.12086 1.44144,-1.78126 2.80768,-3.63753 4.08269,-5.55563 1.27501,-1.91809 2.46935,-3.89901 3.56648,-5.94213 0.10127,-0.18858 0.18188,-0.39012 0.28157,-0.57971 l 0,-142.10372 c -0.28503,-0.56506 -0.52248,-1.15866 -0.82123,-1.71501 -1.09713,-2.04311 -2.29148,-4.02402 -3.56649,-5.94211 -1.275,-1.9181 -2.64125,-3.77438 -4.08269,-5.55565 -1.44143,-1.78126 -2.95554,-3.48822 -4.55196,-5.12086 -1.59641,-1.63263 -3.28128,-3.18973 -5.02123,-4.66191 -1.73996,-1.47217 -3.54809,-2.85472 -5.42013,-4.15465 -1.87204,-1.29992 -3.80286,-2.53155 -5.79554,-3.6474 -1.99268,-1.11586 -4.04562,-2.12355 -6.14749,-3.04353 -2.10187,-0.91998 -4.25291,-1.75151 -6.45252,-2.46381 -2.08451,-0.67502 -4.21987,-1.23682 -6.38214,-1.715 l -217.25061,0 c -2.16226,0.47818 -4.29762,1.03998 -6.38213,1.715 -2.19961,0.7123 -4.35065,1.54383 -6.45252,2.46381 -2.10187,0.91998 -4.15482,1.92767 -6.1475,3.04353 -1.99268,1.11585 -3.92349,2.34748 -5.79554,3.6474 -1.87205,1.29993 -3.68017,2.68248 -5.42012,4.15465 -1.73995,1.47218 -3.42482,3.02928 -5.02123,4.66191 -1.59642,1.63264 -3.11053,3.3396 -4.55197,5.12086 -1.44144,1.78127 -2.80767,3.63755 -4.08268,5.55565 -1.27502,1.91809 -2.46936,3.899 -3.5665,5.94211 -1.09712,2.04313 -2.09555,4.14813 -3.00335,6.30445 -0.90779,2.15632 -1.70975,4.36074 -2.41676,6.61847 -0.0915,0.29217 -0.14661,0.59998 -0.23464,0.89373 l 0,110.60563 z"
       style="fill:#e9ddaf;fill-opacity:1;stroke:none" />
    <path
       sodipodi:type="arc"
       style="fill:#000000;fill-opacity:1;stroke:none"
       id="path3003"
       sodipodi:cx="304.64285"
       sodipodi:cy="717.36218"
       sodipodi:rx="5.3571429"
       sodipodi:ry="37.857143"
       d="m 310,717.36218 a 5.3571429,37.857143 0 1 1 -10.71429,0 5.3571429,37.857143 0 1 1 10.71429,0 z"
       transform="matrix(2.4947914,0,0,1.4348693,-433.05705,-291.76343)" />
    <path
       inkscape:connector-curvature="0"
       id="path3009"
       d="m 361.33033,673.17824 c -75.41651,-34.20151 -75.41651,-34.20151 -75.41651,-34.20151 l -5.72784,18.10667 76.37115,26.15411 z"
       style="fill:#000000;stroke:#000000;stroke-width:1.3719269px;stroke-linecap:butt;stroke-linejoin:miter;stroke-opacity:1" />
    <path
       transform="matrix(-2.4947914,0,0,1.4348693,1213.0572,-291.76343)"
       d="m 310,717.36218 a 5.3571429,37.857143 0 1 1 -10.71429,0 5.3571429,37.857143 0 1 1 10.71429,0 z"
       sodipodi:ry="37.857143"
       sodipodi:rx="5.3571429"
       sodipodi:cy="717.36218"
       sodipodi:cx="304.64285"
       id="path3077"
       style="fill:#000000;fill-opacity:1;stroke:none"
       sodipodi:type="arc" />
    <path
       style="fill:#000000;stroke:#000000;stroke-width:1.3719269px;stroke-linecap:butt;stroke-linejoin:miter;stroke-opacity:1"
       d="m 418.66969,673.17824 c 75.41652,-34.20151 75.41652,-34.20151 75.41652,-34.20151 l 5.72784,18.10667 -76.37116,26.15411 z"
       id="path3079"
       inkscape:connector-curvature="0" />
    <path
       style="fill:none;fill-opacity:1;stroke:#000000;stroke-width:2"
       d="m 230.00445,773.79863 c 0.01,0.0475 0.0135,0.0975 0.0234,0.14493 0.49479,2.34732 1.0997,4.65059 1.80671,6.90832 0.70702,2.25772 1.53243,4.46214 2.44023,6.61847 0.90779,2.15632 1.90623,4.26133 3.00336,6.30444 1.09712,2.04312 2.29148,4.02404 3.56648,5.94213 1.27501,1.9181 2.64126,3.77437 4.08269,5.55563 1.44144,1.78129 2.95554,3.48824 4.55196,5.12086 1.59642,1.63263 3.25782,3.18974 4.99777,4.66192 1.73996,1.47218 3.54808,2.85473 5.42013,4.15465 1.87203,1.29992 3.82631,2.50738 5.819,3.62325 1.99268,1.11585 4.02216,2.14769 6.12403,3.06767 2.10187,0.91998 4.27637,1.72736 6.47599,2.43966 1.40746,0.45579 2.85022,0.79266 4.29387,1.15944 l 220.32434,0 c 1.44636,-0.36729 2.90729,-0.70282 4.31734,-1.15944 2.1996,-0.7123 4.35065,-1.51968 6.45251,-2.43966 2.10188,-0.91998 4.15482,-1.95182 6.14749,-3.06767 1.99269,-1.11587 3.92351,-2.32333 5.79555,-3.62325 1.87204,-1.29992 3.68017,-2.68247 5.42012,-4.15465 1.73996,-1.47218 3.42482,-3.02929 5.02124,-4.66192 1.59641,-1.63262 3.11053,-3.33957 4.55196,-5.12086 1.44144,-1.78126 2.80768,-3.63753 4.08269,-5.55563 1.27501,-1.91809 2.46935,-3.89901 3.56648,-5.94213 0.10127,-0.18858 0.18188,-0.39012 0.28157,-0.57971 l 0,-142.10372 c -0.28503,-0.56506 -0.52248,-1.15866 -0.82123,-1.71501 -1.09713,-2.04311 -2.29148,-4.02402 -3.56649,-5.94211 -1.275,-1.9181 -2.64125,-3.77438 -4.08269,-5.55565 -1.44143,-1.78126 -2.95554,-3.48822 -4.55196,-5.12086 -1.59641,-1.63263 -3.28128,-3.18973 -5.02123,-4.66191 -1.73996,-1.47217 -3.54809,-2.85472 -5.42013,-4.15465 -1.87204,-1.29992 -3.80286,-2.53155 -5.79554,-3.6474 -1.99268,-1.11586 -4.04562,-2.12355 -6.14749,-3.04353 -2.10187,-0.91998 -4.25291,-1.75151 -6.45252,-2.46381 -2.08451,-0.67502 -4.21987,-1.23682 -6.38214,-1.715 l -217.25061,0 c -2.16226,0.47818 -4.29762,1.03998 -6.38213,1.715 -2.19961,0.7123 -4.35065,1.54383 -6.45252,2.46381 -2.10187,0.91998 -4.15482,1.92767 -6.1475,3.04353 -1.99268,1.11585 -3.92349,2.34748 -5.79554,3.6474 -1.87205,1.29993 -3.68017,2.68248 -5.42012,4.15465 -1.73995,1.47218 -3.42482,3.02928 -5.02123,4.66191 -1.59642,1.63264 -3.11053,3.3396 -4.55197,5.12086 -1.44144,1.78127 -2.80767,3.63755 -4.08268,5.55565 -1.27502,1.91809 -2.46936,3.899 -3.5665,5.94211 -1.09712,2.04313 -2.09555,4.14813 -3.00335,6.30445 -0.90779,2.15632 -1.70975,4.36074 -2.41676,6.61847 -0.0915,0.29217 -0.14661,0.59998 -0.23464,0.89373 l 0,110.60563 z"
       id="path3081"
       inkscape:connector-curvature="0" />
    <path
       style="fill:#000000;stroke:none;stroke-width:4.17399359000000025;stroke-opacity:1;fill-opacity:0.50520831"
       d="M 257.78125 945.09375 C 252.2913 959.63124 249.28125 975.30977 249.28125 991.65625 C 249.28125 1067.3982 313.52838 1128.7812 392.78125 1128.7812 C 406.77958 1128.7812 420.30305 1126.8531 433.09375 1123.2812 C 360.73654 1090.5671 286.52622 1021.5927 257.78125 945.09375 z "
       id="path3963" />
    <path
       style="fill:#000000;stroke:none;stroke-width:4.17399359000000025;stroke-opacity:1"
       d="M 249.5 984.0625 C 249.35664 986.5747 249.28125 989.10984 249.28125 991.65625 C 249.28125 1018.7418 257.50745 1043.9844 271.6875 1065.25 C 366.87967 1083.3941 447.10787 1080.4375 511.53125 1068.6562 C 527.1539 1046.7004 536.28125 1020.2093 536.28125 991.65625 C 536.28125 991.39674 536.28276 991.13417 536.28125 990.875 C 464.28096 1007.9728 368.70279 1013.2582 249.5 984.0625 z "
       id="path3089" />
    <path
       style="fill:#ffff00;fill-opacity:1;stroke:none"
       d="M 322.15625 998.1875 L 322.15625 1073.125 C 372.42761 1079.2169 417.93124 1079.3768 458.5625 1075.7812 L 458.5625 1003 C 418.14333 1006.2498 372.68679 1005.4019 322.15625 998.1875 z "
       id="rect3095" />
    <path
       id="path3098"
       d="m 333.58482,1006.0446 0,61.5518 c 41.29164,5.0037 78.66718,5.1351 112.04069,2.1817 l 0,-59.7806 c -33.1993,2.6693 -70.53617,1.9728 -112.04069,-3.9529 z"
       style="fill:#000000;fill-opacity:1;stroke:none"
       inkscape:connector-curvature="0" />
    <path
       sodipodi:type="arc"
       style="fill:#ff00ff;fill-opacity:1;stroke:none"
       id="path3110"
       sodipodi:cx="92.5"
       sodipodi:cy="868.79077"
       sodipodi:rx="74.64286"
       sodipodi:ry="71.428574"
       d="m 167.14286,868.79077 a 74.64286,71.428574 0 1 1 -149.28572,0 74.64286,71.428574 0 1 1 149.28572,0 z"
       transform="matrix(1.0861244,0,0,1,-31.537935,5.7142857)" />
    <path
       transform="matrix(1.0861244,0,0,1,607.74778,5.7142857)"
       d="m 167.14286,868.79077 a 74.64286,71.428574 0 1 1 -149.28572,0 74.64286,71.428574 0 1 1 149.28572,0 z"
       sodipodi:ry="71.428574"
       sodipodi:rx="74.64286"
       sodipodi:cy="868.79077"
       sodipodi:cx="92.5"
       id="path3114"
       style="fill:#ff00ff;fill-opacity:1;stroke:none"
       sodipodi:type="arc" />
    <path
       style="fill:#ff00ff;fill-opacity:1;stroke:none"
       d="M 585 1198.0625 C 534.89988 1198.0625 494.28125 1230.0511 494.28125 1269.5 C 494.28125 1281.1509 497.84167 1292.1586 504.125 1301.875 C 562.23361 1308.6025 624.94178 1298.2448 673.15625 1286.4375 C 674.83387 1281.0068 675.71875 1275.3372 675.71875 1269.5 C 675.71875 1230.0511 635.10012 1198.0625 585 1198.0625 z "
       id="path3116" />
    <path
       inkscape:connector-curvature="0"
       style="fill:none;fill-opacity:1;stroke:#000000;stroke-width:8;opacity:0.9"
       d="m 231.42857,1195.2054 c 50.10012,0 90.71875,31.9886 90.71875,71.4375 0,11.6509 -3.56042,22.6586 -9.84375,32.375 -58.10861,6.7275 -120.81678,-3.6302 -169.03125,-15.4375 -1.67762,-5.4307 -2.5625,-11.1003 -2.5625,-16.9375 0,-39.4489 40.61863,-71.4375 90.71875,-71.4375 z"
       id="path3937" />
    <path
       id="path3122"
       d="m 231.42857,1195.2054 c 50.10012,0 90.71875,31.9886 90.71875,71.4375 0,11.6509 -3.56042,22.6586 -9.84375,32.375 -58.10861,6.7275 -120.81678,-3.6302 -169.03125,-15.4375 -1.67762,-5.4307 -2.5625,-11.1003 -2.5625,-16.9375 0,-39.4489 40.61863,-71.4375 90.71875,-71.4375 z"
       style="fill:#ff00ff;fill-opacity:1;stroke:none"
       inkscape:connector-curvature="0" />
    <path
       style="fill:#000000;fill-opacity:0.421875;stroke:none"
       d="m 627.84821,884.0625 c 5.3054,34.92602 39.28191,61.875 80.375,61.875 25.03303,0 47.40989,-10.00966 62.28125,-25.71875 -49.85286,1.21084 -103.59831,-6.50964 -142.65625,-36.15625 z"
       id="path3143"
       inkscape:connector-curvature="0" />
    <path
       style="fill:#000000;fill-opacity:0.421875;stroke:none"
       d="M 0.78125 835.8125 C -7.3924932 846.96374 -12.15625 860.23803 -12.15625 874.5 C -12.15625 913.94891 24.162984 945.9375 68.9375 945.9375 C 77.760551 945.9375 86.2357 944.67104 94.1875 942.375 C 53.975289 919.42205 6.4300258 882.78478 0.78125 835.8125 z "
       id="path3918" />
    <path
       style="fill:#000000;fill-opacity:0.42352942;stroke:none"
       d="M 148.875 1237 C 143.63395 1246.0325 140.71875 1256.0779 140.71875 1266.6562 C 140.71875 1272.4934 141.60363 1278.1631 143.28125 1283.5938 C 191.49572 1295.401 254.20389 1305.7587 312.3125 1299.0312 C 314.36261 1295.861 316.12123 1292.5477 317.5625 1289.125 C 262.54342 1285.4708 190.25166 1273.3512 148.875 1237 z "
       id="path3926" />
    <path
       style="fill:#000000;fill-opacity:0.421875;stroke:none"
       d="M 675.28125 1262.5 C 620.53441 1282.029 555.04864 1295.146 495.28125 1279.9688 C 496.73707 1287.7489 499.75942 1295.1242 504.125 1301.875 C 562.23361 1308.6025 624.94178 1298.2448 673.15625 1286.4375 C 674.83387 1281.0068 675.71875 1275.3372 675.71875 1269.5 C 675.71875 1267.1405 675.56522 1264.8009 675.28125 1262.5 z "
       id="path3931" />
    <path
       style="fill:#000000;fill-opacity:0.125;stroke:none"
       d="M 175.71875 790.0625 L 175.71875 803.03125 C 175.73195 803.09645 175.7367 803.15362 175.75 803.21875 C 176.40898 806.44148 177.21462 809.61903 178.15625 812.71875 C 179.09788 815.81847 180.19721 818.82075 181.40625 821.78125 C 182.61529 824.74175 183.94505 827.63243 185.40625 830.4375 C 186.86745 833.24257 188.45814 835.99158 190.15625 838.625 C 191.85436 841.25843 193.67398 843.80443 195.59375 846.25 C 197.51352 848.69558 199.53007 851.03975 201.65625 853.28125 C 203.78243 855.52274 205.99515 857.63504 208.3125 859.65625 C 210.62985 861.67746 213.03798 863.59028 215.53125 865.375 C 218.02452 867.15971 220.62731 868.81174 223.28125 870.34375 C 225.93519 871.87575 228.63814 873.29942 231.4375 874.5625 C 234.23686 875.82558 237.13296 876.9283 240.0625 877.90625 C 241.93702 878.53201 243.85855 878.99643 245.78125 879.5 L 539.21875 879.5 C 541.14507 878.99573 543.09079 878.53316 544.96875 877.90625 C 547.89829 876.9283 550.76314 875.82558 553.5625 874.5625 C 556.36186 873.29942 559.09606 871.87575 561.75 870.34375 C 563.07697 869.57775 564.36996 868.79778 565.65625 867.96875 C 433.08172 874.62515 279.34752 862.10962 175.71875 790.0625 z "
       id="path3973" />
    <rect
       style="opacity:0.9;fill:#f2f2f2;fill-opacity:0;stroke:none"
       id="rect3978"
       width="877.14276"
       height="931.42859"
       x="-48.571434"
       y="426.64789"
       inkscape:export-filename="/home/philipp/code/gruppe26/graphics/bomberman.png"
       inkscape:export-xdpi="5.1780825"
       inkscape:export-ydpi="5.1780825" />
  </g>
</svg>
