<?xml version="1.0" encoding="UTF-8" standalone="no"?>
<!-- Created with Inkscape (http://www.inkscape.org/) -->

<svg
   xmlns:dc="http://purl.org/dc/elements/1.1/"
   xmlns:cc="http://creativecommons.org/ns#"
   xmlns:rdf="http://www.w3.org/1999/02/22-rdf-syntax-ns#"
   xmlns:svg="http://www.w3.org/2000/svg"
   xmlns="http://www.w3.org/2000/svg"
   xmlns:sodipodi="http://sodipodi.sourceforge.net/DTD/sodipodi-0.dtd"
   xmlns:inkscape="http://www.inkscape.org/namespaces/inkscape"
   width="48px"
   height="48px"
   id="svg4383"
   version="1.1"
   inkscape:version="0.48.1 r9760"
   sodipodi:docname="Exit4.svg">
  <defs
     id="defs4385" />
  <sodipodi:namedview
     id="base"
     pagecolor="#ffffff"
     bordercolor="#666666"
     borderopacity="1.0"
     inkscape:pageopacity="0.0"
     inkscape:pageshadow="2"
     inkscape:zoom="7"
     inkscape:cx="-34.857143"
     inkscape:cy="24"
     inkscape:current-layer="layer1"
     showgrid="true"
     inkscape:grid-bbox="true"
     inkscape:document-units="px"
     inkscape:window-width="1920"
     inkscape:window-height="1031"
     inkscape:window-x="0"
     inkscape:window-y="25"
     inkscape:window-maximized="1" />
  <metadata
     id="metadata4388">
    <rdf:RDF>
      <cc:Work
         rdf:about="">
        <dc:format>image/svg+xml</dc:format>
        <dc:type
           rdf:resource="http://purl.org/dc/dcmitype/StillImage" />
        <dc:title></dc:title>
      </cc:Work>
    </rdf:RDF>
  </metadata>
  <g
     id="layer1"
     inkscape:label="Layer 1"
     inkscape:groupmode="layer">
    <rect
       style="opacity:0.50000000000000000;fill:#000000;fill-opacity:1;stroke:none"
       id="rect4391"
       width="24"
       height="48.42857"
       x="0.42857143"
       y="-0.14285715"
       ry="3.482594"
       inkscape:export-filename="/home/larissa/Bombermangraphiken/exit.png"
       inkscape:export-xdpi="90"
       inkscape:export-ydpi="90" />
    <rect
       style="opacity:0.5;fill:#4d4d4d;fill-opacity:1;stroke:none"
       id="rect4395"
       width="22.857143"
       height="48.285717"
       x="25"
       y="-0.14285713"
       ry="2.9995673"
       inkscape:export-filename="/home/larissa/Bombermangraphiken/exit.png"
       inkscape:export-xdpi="90"
       inkscape:export-ydpi="90" />
    <path
       sodipodi:type="arc"
       style="opacity:0.50000000000000000;fill:#d4aa00;fill-opacity:1;stroke:none"
       id="path4399"
       sodipodi:cx="19.785715"
       sodipodi:cy="24.928572"
       sodipodi:rx="3.7857144"
       sodipodi:ry="3.7857144"
       d="m 23.571429,24.928572 a 3.7857144,3.7857144 0 1 1 -7.571428,0 3.7857144,3.7857144 0 1 1 7.571428,0 z"
       inkscape:export-filename="/home/larissa/Bombermangraphiken/exit.png"
       inkscape:export-xdpi="90"
       inkscape:export-ydpi="90" />
    <path
       sodipodi:type="arc"
       style="opacity:0.50000000000000000;fill:#d4aa00;fill-opacity:1;stroke:none"
       id="path4931"
       sodipodi:cx="30.571428"
       sodipodi:cy="26.785715"
       sodipodi:rx="3.7142856"
       sodipodi:ry="3.7857144"
       d="m 34.285714,26.785715 a 3.7142856,3.7857144 0 1 1 -7.428571,0 3.7142856,3.7857144 0 1 1 7.428571,0 z"
       transform="translate(0.28571429,-2)"
       inkscape:export-filename="/home/larissa/Bombermangraphiken/exit.png"
       inkscape:export-xdpi="90"
       inkscape:export-ydpi="90" />
    <path
       style="opacity:0.5;fill:#000000;fill-opacity:1;stroke:none"
       d="M 2.7550752,47.985353 C 1.9736257,47.706761 0.98736304,46.742323 0.72553114,46.000719 0.43488067,45.17749 0.43173771,3.0025173 0.72226557,2.1806043 0.99746546,1.4020546 1.6962823,0.6658518 2.5275316,0.27875854 l 0.7153256,-0.33311028 9.1428568,0.0048749 c 7.069099,0.0037692 9.259189,0.04645805 9.655743,0.1882083 0.81969,0.29300133 1.51656,0.91402059 1.908703,1.70094699 l 0.364126,0.7307057 -0.0031,21.5076649 c -0.003,20.521345 -0.01511,21.533871 -0.264139,22.079094 -0.311867,0.682791 -1.00933,1.390823 -1.717355,1.743377 -0.47811,0.23807 -1.181505,0.25854 -9.729655,0.283141 -8.0654051,0.02321 -9.2929164,-0.0015 -9.8449245,-0.198308 l 5.7e-6,0 z M 21.549617,28.29596 c 1.392069,-0.681074 2.146326,-2.07374 2.014252,-3.71912 -0.265283,-3.304857 -4.345856,-4.689113 -6.568966,-2.228396 -0.656113,0.726239 -0.802439,1.007052 -0.95764,1.837803 -0.170227,0.911182 0.06045,2.11982 0.537116,2.814207 1.163481,1.694917 3.118417,2.203965 4.975238,1.295506 l 0,0 z"
       id="path3754"
       inkscape:connector-curvature="0"
       inkscape:export-filename="/home/larissa/Bombermangraphiken/exit.png"
       inkscape:export-xdpi="90"
       inkscape:export-ydpi="90" />
    <path
       style="opacity:0.5;fill:#000000;fill-opacity:1;stroke:none"
       d="M 2.8646007,47.89052 C 2.172051,47.638453 1.6104855,47.184409 1.1520984,46.505907 L 0.77562537,45.948653 0.67307877,41.910041 C 0.61667814,39.688804 0.59419733,29.9 0.62312139,20.157143 L 0.67571061,2.4428571 0.98109561,1.8714286 C 1.351473,1.1783878 1.767911,0.78123714 2.5442377,0.3806834 3.1274035,0.07979303 3.1943282,0.07803138 12.544238,0.11745431 c 8.668846,0.0365513 9.449243,0.0595533 9.872619,0.29099302 0.624294,0.34127287 1.135573,0.90366097 1.546676,1.70128757 l 0.343714,0.6668778 -0.08215,21.2616933 c -0.04915,12.718745 -0.13692,21.480197 -0.218453,21.805504 -0.07496,0.299097 -0.36908,0.801473 -0.65359,1.116391 -1.014804,1.123266 -0.296666,1.050183 -10.681621,1.087036 -7.4263081,0.02635 -9.3900644,-0.005 -9.8068283,-0.156717 l 0,0 z M 21.011586,28.5642 c 3.196845,-1.032466 3.528555,-5.65622 0.510847,-7.120781 -0.340816,-0.165405 -0.977414,-0.297142 -1.603136,-0.331748 -0.906757,-0.05015 -1.137843,-0.0085 -1.829554,0.329948 -1.010672,0.494474 -1.833159,1.500281 -2.048702,2.505322 -0.191547,0.89315 -0.191608,0.955532 -0.0019,1.84034 0.481276,2.244112 2.731342,3.500699 4.972396,2.776919 l 6e-6,0 z"
       id="path3756"
       inkscape:connector-curvature="0"
       inkscape:export-filename="/home/larissa/Bombermangraphiken/exit.png"
       inkscape:export-xdpi="90"
       inkscape:export-ydpi="90" />
    <path
       style="opacity:0.5;fill:#000000;fill-opacity:1;stroke:none"
       d="M 2.8142857,47.767457 C 2.257279,47.568809 1.6185119,47.031996 1.1714286,46.386816 L 0.81428574,45.871429 0.77502344,24.175749 0.73576114,2.4800677 1.0828575,1.8900339 C 1.5248358,1.1387088 1.9668043,0.7280613 2.6330756,0.4496754 3.0924153,0.257751 4.3458939,0.22969529 12.131126,0.23708729 c 4.932881,0.004684 9.276508,0.0591234 9.652505,0.12097705 0.771673,0.12694473 1.331265,0.57300645 1.978429,1.57704726 l 0.409369,0.6351114 -0.01392,14.436317 c -0.0077,7.939974 -0.05826,17.682746 -0.11244,21.650603 -0.108792,7.966686 -0.06207,7.58955 -1.058965,8.547484 -0.418005,0.401669 -0.648714,0.495807 -1.476474,0.602469 -1.442104,0.185821 -18.1625581,0.15037 -18.6953413,-0.03964 z M 21.546887,28.399984 c 0.757544,-0.388345 1.670082,-1.426117 1.88511,-2.143818 0.265117,-0.884882 0.205174,-2.288757 -0.12927,-3.027595 -0.631766,-1.39566 -1.621511,-2.019361 -3.345584,-2.108262 -1.300029,-0.06704 -1.8864,0.114818 -2.714429,0.841837 -2.22103,1.95009 -1.570475,5.617224 1.178425,6.64271 0.762125,0.284313 2.378111,0.178397 3.125748,-0.204872 l 0,0 z"
       id="path3758"
       inkscape:connector-curvature="0"
       inkscape:export-filename="/home/larissa/Bombermangraphiken/exit.png"
       inkscape:export-xdpi="90"
       inkscape:export-ydpi="90" />
    <path
       style="opacity:0.5;fill:#000000;fill-opacity:1;stroke:none"
       d="M 2.9378116,47.663913 C 2.3226013,47.517164 1.7197462,47.062263 1.2830264,46.41525 L 0.91595846,45.871429 0.8456386,24.195233 0.77531873,2.5190364 1.1675302,1.9095183 C 1.6884486,1.0999824 2.1643936,0.68042243 2.755696,0.5095018 3.453131,0.30790274 21.585853,0.3191083 22.121404,0.52146931 c 0.505,0.19081682 1.093863,0.73754339 1.635939,1.51887769 l 0.414528,0.59749 -0.140345,21.116796 c -0.08428,12.680684 -0.196946,21.428284 -0.282023,21.896496 -0.174854,0.962295 -0.935596,1.810805 -1.804097,2.012242 -0.66604,0.154479 -18.3601394,0.154983 -19.0075944,5.72e-4 l 0,-3e-5 z M 20.975034,28.637736 c 0.856796,-0.215745 2.090225,-1.335895 2.419035,-2.196872 0.377317,-0.987991 0.239967,-2.789341 -0.280325,-3.676473 -0.678618,-1.157087 -1.756675,-1.678677 -3.469608,-1.678677 -1.09834,0 -1.790597,0.266755 -2.520526,0.971262 -1.129507,1.090167 -1.517909,2.683403 -1.019771,4.183151 0.302748,0.911493 1.483884,2.18131 2.228072,2.39536 0.673195,0.19363 1.879002,0.194656 2.643123,0.0022 l 0,6e-6 z"
       id="path3760"
       inkscape:connector-curvature="0"
       inkscape:export-filename="/home/larissa/Bombermangraphiken/exit.png"
       inkscape:export-xdpi="90"
       inkscape:export-ydpi="90" />
    <path
       style="opacity:0.5;fill:#000000;fill-opacity:1;stroke:none"
       d="m 26.888283,47.789007 c -0.80776,-0.366396 -1.098553,-0.630523 -1.482056,-1.34615 L 25.1,45.871429 25.055925,24.442857 c -0.03129,-15.2136007 0.0015,-21.6406976 0.113223,-22.1599607 0.101345,-0.4712249 0.33353,-0.9372764 0.652731,-1.31019093 0.922225,-1.077412 0.566697,-1.04467535 10.84955,-0.99901656 l 9.142857,0.0405969 0.571428,0.39093945 C 46.7,0.62024186 47.117857,1.0333803 47.314286,1.3233106 l 0.357143,0.5271458 0.03706,21.9860606 c 0.03358,19.924492 0.01559,22.031314 -0.191958,22.468676 -0.309368,0.651947 -0.870567,1.196134 -1.559388,1.512116 -0.534909,0.245378 -1.142043,0.262131 -9.5,0.262131 -8.671714,0 -8.946991,-0.0084 -9.56886,-0.290433 l 0,0 z m 5.688214,-19.599671 c 1.341284,-0.669869 2.117915,-2.129057 1.98886,-3.736806 -0.03884,-0.48385 -0.182588,-1.101821 -0.319441,-1.373271 -0.906218,-1.79748 -3.113624,-2.614318 -4.863195,-1.799595 -1.417549,0.660109 -2.238328,1.888597 -2.245484,3.360892 -0.006,1.227661 0.246694,1.917345 1.00247,2.736418 1.17719,1.275783 2.883368,1.588179 4.43679,0.812362 l 0,0 z"
       id="path3762"
       inkscape:connector-curvature="0"
       inkscape:export-filename="/home/larissa/Bombermangraphiken/exit.png"
       inkscape:export-xdpi="90"
       inkscape:export-ydpi="90" />
    <path
       style="opacity:0.5;fill:#000000;fill-opacity:1;stroke:none"
       d="m 27.141623,47.801656 c -0.62669,-0.188912 -1.229821,-0.691977 -1.6125,-1.34497 l -0.357694,-0.61036 0,-21.739006 c 0,-21.5844913 0.0021,-21.7434127 0.291479,-22.3591019 C 25.842893,0.93983674 26.391494,0.43531914 27.1,0.24267789 27.483543,0.13839327 30.667576,0.08704574 36.783825,0.08651099 L 45.89622,0.08571429 46.74811,0.91415193 47.6,1.7425896 47.596591,23.592723 c -0.0019,12.356676 -0.05902,22.089821 -0.13141,22.401797 -0.155702,0.671056 -0.741384,1.32255 -1.508038,1.6775 -0.537646,0.248921 -1.099274,0.264021 -9.5,0.255421 -4.910714,-0.005 -9.102698,-0.06163 -9.31552,-0.125785 l 0,0 z M 32.53613,28.261437 c 0.709254,-0.36218 1.394016,-1.045348 1.735819,-1.731783 0.189741,-0.381051 0.256622,-0.850455 0.256622,-1.801083 0,-1.139638 -0.04383,-1.36027 -0.385778,-1.941931 -1.510266,-2.568991 -5.404786,-2.41242 -6.706925,0.269639 -0.246516,0.507757 -0.325553,0.91703 -0.322946,1.672292 0.0058,1.672753 0.755104,2.858542 2.272792,3.596616 0.591014,0.287419 0.87454,0.337404 1.642857,0.289639 0.555545,-0.03454 1.161163,-0.176502 1.507559,-0.353389 l 0,0 z"
       id="path3764"
       inkscape:connector-curvature="0"
       inkscape:export-filename="/home/larissa/Bombermangraphiken/exit.png"
       inkscape:export-xdpi="90"
       inkscape:export-ydpi="90" />
    <path
       style="opacity:0.5;fill:#000000;fill-opacity:1;stroke:none"
       d="M 26.671429,47.473106 C 26.357143,47.295897 25.88308,46.830884 25.617956,46.439741 l -0.482045,-0.71117 0.09782,-21.571428 c 0.06441,-14.204148 0.148731,-21.7665884 0.246887,-22.1428573 0.186754,-0.7158964 1.059233,-1.57569396 1.713199,-1.688298 0.262686,-0.045231 4.548914,-0.1268254 9.524951,-0.18132096 L 45.766109,0.04558389 46.695906,0.95850623 47.625703,1.8714286 47.531517,23.8 c -0.05678,13.218816 -0.148304,22.103621 -0.23044,22.369293 -0.170374,0.551093 -0.754083,1.119608 -1.446488,1.408843 -0.461399,0.192737 -1.717972,0.221555 -9.571429,0.219514 L 27.242857,47.7953 26.671429,47.473106 z M 32.189695,28.438871 C 33.08147,28.135013 33.795011,27.50216 34.229967,26.629319 34.533447,26.020313 34.6,25.685427 34.6,24.767363 c 0,-1.272944 -0.183889,-1.8216 -0.873946,-2.607533 -1.93074,-2.19899 -5.795285,-1.312877 -6.557058,1.503489 -0.220892,0.816662 -0.08564,2.150251 0.298567,2.943921 0.804279,1.661419 2.870057,2.462697 4.722132,1.831631 l 0,0 z"
       id="path3766"
       inkscape:connector-curvature="0"
       inkscape:export-filename="/home/larissa/Bombermangraphiken/exit.png"
       inkscape:export-xdpi="90"
       inkscape:export-ydpi="90" />
    <path
       style="opacity:0.5;fill:#000000;fill-opacity:1;stroke:none"
       d="M 26.78964,47.452023 C 26.461799,47.248907 25.96223,46.76758 25.679488,46.382409 L 25.165412,45.682096 25.313154,24.205333 C 25.394412,12.393114 25.517895,2.486049 25.58756,2.1896326 25.756281,1.4717414 26.057642,1.0364836 26.631554,0.68178647 27.090171,0.39834603 27.420396,0.3830227 36.368502,0.2299666 l 9.262231,-0.15842916 0.877491,0.81889206 c 0.48262,0.4503906 0.922085,0.8553661 0.97659,0.8999455 0.171025,0.139881 -0.143855,43.920542 -0.319224,44.384634 -0.229476,0.607277 -0.841074,1.183204 -1.415929,1.333341 -0.278742,0.0728 -4.524661,0.173003 -9.435375,0.22267 l -8.928572,0.09031 -0.596074,-0.369303 0,0 z m 5.746875,-19.13398 c 0.844709,-0.393342 1.662862,-1.285459 1.897691,-2.069249 0.260017,-0.86786 0.20433,-2.566651 -0.106028,-3.234508 -0.333429,-0.717503 -1.203205,-1.558985 -1.920148,-1.857683 -0.650932,-0.271197 -1.973787,-0.303956 -2.760164,-0.06835 -1.556033,0.466199 -2.623255,1.89064 -2.614631,3.489798 0.0054,0.999577 0.354834,2.125332 0.858576,2.765964 0.193075,0.245543 0.730957,0.641446 1.195292,0.879786 1.103188,0.566257 2.361902,0.600647 3.449412,0.09424 l 0,0 z"
       id="path3768"
       inkscape:connector-curvature="0"
       inkscape:export-filename="/home/larissa/Bombermangraphiken/exit.png"
       inkscape:export-xdpi="90"
       inkscape:export-ydpi="90" />
    <path
       style="opacity:0.5;fill:#000000;fill-opacity:1;stroke:none"
       d="M 26.783235,47.327954 C 26.451871,47.076866 25.975917,46.603256 25.72556,46.27549 l -0.455195,-0.595939 0.02667,-8.118347 c 0.01467,-4.465091 0.09021,-14.256348 0.167865,-21.758351 C 25.596751,3.0655566 25.623261,2.1295704 25.865474,1.6599963 26.008133,1.3834269 26.327221,1.0195598 26.574559,0.85140269 27.1066,0.48968486 28.409119,0.42632041 39.028571,0.24554454 l 6.5,-0.11065005 0.964286,0.84726484 0.964286,0.84726477 -0.001,8.6638599 c -5.72e-4,4.765122 -0.06736,14.705137 -0.148517,22.088923 -0.163752,14.897719 -0.08889,13.90898 -1.104912,14.593674 -0.496113,0.33433 -1.346603,0.367322 -13.959905,0.541519 l -4.857143,0.06708 -0.60248,-0.456526 4.9e-5,0 z m 5.36003,-18.842408 c 0.822957,-0.208155 1.934674,-1.21691 2.249438,-2.041107 0.184897,-0.484146 0.228075,-0.948566 0.183323,-1.971796 -0.05376,-1.229093 -0.09506,-1.388143 -0.505357,-1.946063 -0.959967,-1.30535 -2.152488,-1.79948 -3.802457,-1.575574 -1.05628,0.14334 -1.716275,0.483174 -2.361108,1.215743 -0.631972,0.717958 -0.878533,1.426958 -0.878533,2.526277 0,2.102793 1.180537,3.56974 3.18103,3.952778 0.631563,0.120927 0.914758,0.09746 1.933664,-0.160258 z"
       id="path3770"
       inkscape:connector-curvature="0"
       inkscape:export-filename="/home/larissa/Bombermangraphiken/exit.png"
       inkscape:export-xdpi="90"
       inkscape:export-ydpi="90" />
    <path
       style="opacity:0.5;fill:#000000;fill-opacity:1;stroke:none"
       d="m 26.884759,47.35458 c -0.283752,-0.205696 -0.753189,-0.651196 -1.043193,-0.99 l -0.52728,-0.616009 -9.1e-5,-4.724285 C 25.314021,32.008141 25.616313,4.435349 25.730665,3.0370751 25.836559,1.7422087 25.879078,1.597845 26.269564,1.2073594 26.616597,0.86032574 26.872892,0.75977563 27.682463,0.65304761 28.777876,0.50863623 38.879624,0.22857143 42.993031,0.22857143 l 2.627855,0 L 46.553809,1.05 47.486731,1.8714286 47.3921,17.228571 c -0.118597,19.246219 -0.285944,28.311409 -0.536827,29.079792 -0.342389,1.048644 -0.482037,1.073981 -6.725613,1.220261 -3.002027,0.07034 -7.094152,0.144096 -9.09361,0.163915 l -3.635378,0.03603 -0.515913,-0.373991 z M 32.13715,28.489807 c 0.763724,-0.196163 1.846849,-1.133227 2.194497,-1.898563 0.323969,-0.71321 0.368913,-2.84746 0.07467,-3.545833 -0.259319,-0.61548 -1.192255,-1.553407 -1.860609,-1.870561 -0.65186,-0.309329 -2.177164,-0.344181 -3.101348,-0.07087 -0.825048,0.243997 -2.044759,1.436866 -2.259305,2.209584 -0.36203,1.303906 -0.08854,3.05809 0.622029,3.989689 0.689112,0.903473 2.229524,1.560967 3.292916,1.405515 0.235714,-0.03446 0.702432,-0.132991 1.03715,-0.218964 l 0,0 z"
       id="path3772"
       inkscape:connector-curvature="0"
       inkscape:export-filename="/home/larissa/Bombermangraphiken/exit.png"
       inkscape:export-xdpi="90"
       inkscape:export-ydpi="90" />
    <path
       style="opacity:0.5;fill:#000000;fill-opacity:1;stroke:none"
       d="M 26.30463,46.706094 25.288938,45.7162 25.454455,26.293814 C 25.54549,15.611503 25.66743,5.7464286 25.725432,4.3714286 c 0.160737,-3.81037869 -0.02237,-3.68166306 5.487857,-3.85767911 2.137691,-0.0682854 6.23419,-0.16877865 9.10333,-0.2233184 l 5.21662,-0.0991632 0.961951,0.83145222 0.961953,0.8314522 -7.14e-4,1.7943424 c -0.0032,7.7108303 -0.318405,37.8883043 -0.417169,39.9371993 -0.06927,1.436956 -0.200451,2.737802 -0.297346,2.948533 -0.09537,0.207407 -0.343091,0.455769 -0.550498,0.551914 -0.619977,0.287399 -3.113445,0.400512 -11.195515,0.50787 l -7.675553,0.101958 -1.015692,-0.989895 -2.6e-5,0 z m 5.910967,-18.226128 c 0.715901,-0.208952 1.7875,-1.165429 2.11605,-1.888722 0.323969,-0.71321 0.368913,-2.84746 0.07467,-3.545833 -0.257511,-0.611188 -1.19075,-1.552692 -1.848398,-1.864767 -0.639821,-0.303615 -2.21931,-0.341038 -3.1225,-0.07398 -0.815948,0.24126 -2.03711,1.43884 -2.250364,2.206906 -0.08519,0.306824 -0.155249,0.917287 -0.155687,1.356586 -0.003,2.975407 2.285437,4.656473 5.186229,3.809813 l 0,0 z"
       id="path3774"
       inkscape:connector-curvature="0"
       inkscape:export-filename="/home/larissa/Bombermangraphiken/exit.png"
       inkscape:export-xdpi="90"
       inkscape:export-ydpi="90" />
    <path
       style="opacity:0.5;fill:#000000;fill-opacity:1;stroke:none"
       d="M 26.279743,46.68184 25.279022,45.706536 25.451285,28.074697 C 25.647435,7.9980037 25.770134,2.3754511 26.027102,1.6885164 26.286089,0.99618399 26.811702,0.7991857 28.789262,0.65326794 30.562127,0.522454 41.087999,0.22807379 43.981056,0.22839455 l 1.595341,1.7688e-4 0.9547,0.82142857 0.9547,0.8214286 -0.09121,10.8571424 c -0.145017,17.262128 -0.365224,31.326968 -0.510964,32.635719 -0.162959,1.463386 -0.335694,1.677234 -1.505244,1.86351 -0.96417,0.153564 -10.620508,0.427303 -15.116719,0.42853 l -2.981197,8.13e-4 -1.00072,-0.975303 z m 5.935854,-18.201874 c 0.715901,-0.208952 1.7875,-1.165429 2.11605,-1.888722 0.323969,-0.71321 0.368913,-2.84746 0.07467,-3.545833 -0.257511,-0.611188 -1.19075,-1.552692 -1.848398,-1.864767 -0.639821,-0.303615 -2.21931,-0.341038 -3.1225,-0.07398 -0.815948,0.24126 -2.03711,1.43884 -2.250364,2.206906 -0.08519,0.306824 -0.155249,0.917287 -0.155687,1.356586 -0.003,2.975407 2.285437,4.656473 5.186229,3.809813 l 0,0 z"
       id="path3776"
       inkscape:connector-curvature="0"
       inkscape:export-filename="/home/larissa/Bombermangraphiken/exit.png"
       inkscape:export-xdpi="90"
       inkscape:export-ydpi="90" />
    <path
       style="opacity:0.5;fill:#000000;fill-opacity:1;stroke:none"
       d="M 26.255333,46.669716 25.275472,45.682287 25.44959,28.062573 C 25.648128,7.9717231 25.770703,2.3739316 26.027102,1.6885164 26.286089,0.99618399 26.811702,0.7991857 28.789262,0.65326794 30.562242,0.5224455 41.08807,0.22807384 43.981431,0.22839455 l 1.595718,1.7688e-4 0.959278,0.81890187 0.95928,0.8189018 -0.09533,11.0025269 C 47.250257,30.19468 47.029899,44.04862 46.883511,45.36429 c -0.162824,1.463391 -0.335535,1.677226 -1.505132,1.86351 -0.966455,0.153927 -10.624547,0.427307 -15.139353,0.42853 l -3.003832,8.13e-4 -0.979861,-0.987427 z M 32.571612,28.28739 c 0.862626,-0.429864 1.683174,-1.321869 1.885303,-2.049483 0.159683,-0.57482 0.18915,-2.171867 0.05266,-2.854294 -0.119372,-0.596859 -1.255517,-1.84533 -1.977963,-2.173514 -0.390992,-0.177616 -0.919127,-0.261969 -1.653568,-0.264105 -1.743592,-0.0051 -2.922429,0.737623 -3.603363,2.270192 -0.224134,0.504457 -0.267123,0.8471 -0.21508,1.714285 0.142572,2.375645 1.512286,3.704853 3.833773,3.720402 0.7294,0.0049 1.100161,-0.07542 1.678233,-0.363483 l 0,0 z"
       id="path3778"
       inkscape:connector-curvature="0"
       inkscape:export-filename="/home/larissa/Bombermangraphiken/exit.png"
       inkscape:export-xdpi="90"
       inkscape:export-ydpi="90" />
    <path
       style="opacity:0.50000000000000000;fill:#aa8800;fill-opacity:1;stroke:none"
       d="m 29.666114,28.295606 c -0.828313,-0.306533 -1.514982,-0.925281 -1.984783,-1.788459 -0.333828,-0.613353 -0.408709,-0.924846 -0.407145,-1.69365 0.0022,-1.090442 0.239693,-1.742764 0.914046,-2.510809 1.322467,-1.506207 3.679454,-1.604292 5.113303,-0.21279 0.885844,0.859684 1.076868,1.32606 1.080776,2.638673 0.0038,1.280143 -0.210054,1.866964 -0.959947,2.633972 -0.960813,0.982743 -2.553164,1.378288 -3.75625,0.933063 l 0,0 z"
       id="path3814"
       inkscape:connector-curvature="0"
       inkscape:export-filename="/home/larissa/Bombermangraphiken/exit.png"
       inkscape:export-xdpi="90"
       inkscape:export-ydpi="90" />
    <path
       style="opacity:0.5;fill:#aa8800;fill-opacity:1;stroke:none"
       d="m 29.68947,27.141761 c -1.420365,-0.656471 -2.041833,-2.435755 -1.315246,-3.765592 0.283851,-0.51952 1.058924,-1.160697 1.607396,-1.329712 0.220691,-0.068 0.730409,-0.10408 1.132708,-0.08016 0.897586,0.05336 1.68394,0.466584 2.204835,1.158606 0.330136,0.438596 0.352137,0.530056 0.351724,1.462055 -3.26e-4,0.719608 -0.05351,1.084705 -0.192546,1.321916 -0.723259,1.233872 -2.521038,1.818863 -3.788871,1.232889 z"
       id="path3816"
       inkscape:connector-curvature="0"
       inkscape:export-filename="/home/larissa/Bombermangraphiken/exit.png"
       inkscape:export-xdpi="90"
       inkscape:export-ydpi="90" />
    <path
       style="opacity:0.5;fill:#aa8800;fill-opacity:1;stroke:none"
       d="m 19.075584,28.100136 c -0.716824,-0.213329 -1.42156,-0.819507 -1.770877,-1.523218 -0.967639,-1.94934 0.219543,-4.139708 2.338385,-4.314355 1.578586,-0.130116 2.940809,1.062491 3.0677,2.68573 0.162428,2.077841 -1.730176,3.718789 -3.635208,3.151843 z"
       id="path3818"
       inkscape:connector-curvature="0"
       inkscape:export-filename="/home/larissa/Bombermangraphiken/exit.png"
       inkscape:export-xdpi="90"
       inkscape:export-ydpi="90" />
  </g>
</svg>
