<?xml version="1.0" encoding="UTF-8" standalone="no"?>
<!-- Created with Inkscape (http://www.inkscape.org/) -->

<svg
   xmlns:dc="http://purl.org/dc/elements/1.1/"
   xmlns:cc="http://creativecommons.org/ns#"
   xmlns:rdf="http://www.w3.org/1999/02/22-rdf-syntax-ns#"
   xmlns:svg="http://www.w3.org/2000/svg"
   xmlns="http://www.w3.org/2000/svg"
   xmlns:sodipodi="http://sodipodi.sourceforge.net/DTD/sodipodi-0.dtd"
   xmlns:inkscape="http://www.inkscape.org/namespaces/inkscape"
   width="744.09448819"
   height="1052.3622047"
   id="svg2"
   version="1.1"
   inkscape:version="0.48.2 r9819"
   sodipodi:docname="New document 1">
  <defs
     id="defs4">
    <filter
       inkscape:collect="always"
       id="filter3759"
       x="-0.045667231"
       width="1.0913345"
       y="-0.11963338"
       height="1.2392668">
      <feGaussianBlur
         inkscape:collect="always"
         stdDeviation="15.722938"
         id="feGaussianBlur3761" />
    </filter>
    <filter
       inkscape:collect="always"
       id="filter3763">
      <feGaussianBlur
         inkscape:collect="always"
         stdDeviation="7.2567407"
         id="feGaussianBlur3765" />
    </filter>
  </defs>
  <sodipodi:namedview
     id="base"
     pagecolor="#ffffff"
     bordercolor="#666666"
     borderopacity="1.0"
     inkscape:pageopacity="0.0"
     inkscape:pageshadow="2"
     inkscape:zoom="0.35"
     inkscape:cx="13.01136"
     inkscape:cy="511.43605"
     inkscape:document-units="px"
     inkscape:current-layer="layer1"
     showgrid="false"
     inkscape:window-width="1920"
     inkscape:window-height="999"
     inkscape:window-x="-3"
     inkscape:window-y="25"
     inkscape:window-maximized="1" />
  <metadata
     id="metadata7">
    <rdf:RDF>
      <cc:Work
         rdf:about="">
        <dc:format>image/svg+xml</dc:format>
        <dc:type
           rdf:resource="http://purl.org/dc/dcmitype/StillImage" />
        <dc:title></dc:title>
      </cc:Work>
    </rdf:RDF>
  </metadata>
  <g
     inkscape:label="Layer 1"
     inkscape:groupmode="layer"
     id="layer1">
    <rect
       style="fill:#ffff00;fill-opacity:1;stroke:none"
       id="rect2985"
       width="556.59406"
       height="556.59406"
       x="178.797"
       y="229.08786"
       inkscape:export-filename="/home/philipp/code/gruppe26/graphics/explosion_main100.png"
       inkscape:export-xdpi="16.169773"
       inkscape:export-ydpi="16.169773" />
    <path
       style="fill:#ff6600;stroke:#ff6600;stroke-width:32;stroke-linecap:butt;stroke-linejoin:miter;stroke-opacity:1;filter:url(#filter3759)"
       d="m 29.294424,650.32147 92.934026,-71.72083 38.76217,117.63817 72.35461,-99.45543 72.73099,105.05587 45.45686,-84.85282 21.21321,90.91373 61.6193,-118.18784 55.55839,100.0051 56.56854,-96.97465 c 0,0 35.35534,142.43151 40.40611,135.36044 5.05076,-7.07106 65.65991,-118.18784 65.65991,-118.18784 l 44.44671,87.88327 67.68022,-51.51778 90.91373,-150.51273 -112.12693,-82.83251 -513.15749,36.36549 z"
       id="path3767"
       inkscape:connector-curvature="0"
       transform="matrix(1,0,0,-1,5.0507627,1267.5162)"
       sodipodi:nodetypes="ccccccccccsccccccc" />
    <path
       inkscape:connector-curvature="0"
       id="path2989"
       d="m 51.51778,383.6412 92.93403,-71.72083 33.04788,103.35245 78.0689,-85.16971 72.73099,105.05587 45.45686,-84.85282 21.21321,90.91373 61.6193,-118.18784 55.55839,100.0051 56.56854,-96.97465 c 0,0 35.35534,142.43151 40.40611,135.36044 5.05076,-7.07106 65.65991,-118.18784 65.65991,-118.18784 l 44.44671,87.88327 67.68022,-51.51778 90.91373,-150.51273 -112.12693,-82.83251 -513.15749,36.36549 z"
       style="fill:#ff6600;stroke:#ff6600;stroke-width:32;stroke-linecap:butt;stroke-linejoin:miter;stroke-opacity:1;filter:url(#filter3759)"
       sodipodi:nodetypes="ccccccccccsccccccc" />
    <path
       style="fill:#ff0000;stroke:none;stroke-width:1px;stroke-linecap:butt;stroke-linejoin:miter;stroke-opacity:1;filter:url(#filter3763)"
       d="m 59.599,332.12342 92.93403,-71.72083 61.61931,91.92388 49.49747,-73.74114 72.73099,105.05587 45.45686,-84.85282 21.21321,90.91373 61.6193,-118.18784 55.55839,100.0051 56.56854,-96.97465 c 0,0 35.35534,142.43151 40.40611,135.36044 5.05076,-7.07106 65.65991,-118.18784 65.65991,-118.18784 l 44.44671,87.88327 67.68022,-51.51778 90.91373,-150.51273 -112.12693,-82.83251 -513.15749,36.36549 z"
       id="path2987"
       inkscape:connector-curvature="0" />
    <path
       inkscape:connector-curvature="0"
       id="path3769"
       d="m 37.375644,598.80369 92.934026,-71.72083 61.61931,91.92388 49.49747,-73.74114 72.73099,105.05587 45.45686,-84.85282 21.21321,90.91373 61.6193,-118.18784 55.55839,100.0051 56.56854,-96.97465 c 0,0 35.35534,142.43151 40.40611,135.36044 5.05076,-7.07106 65.65991,-118.18784 65.65991,-118.18784 l 44.44671,87.88327 67.68022,-51.51778 L 863.68042,444.25035 751.55349,361.41784 238.396,397.78333 z"
       style="fill:#ff0000;stroke:none;filter:url(#filter3763)"
       transform="matrix(1,0,0,-1,5.0507627,1267.5162)" />
  </g>
</svg>
