<?xml version="1.0" encoding="UTF-8" standalone="no"?>
<!-- Created with Inkscape (http://www.inkscape.org/) -->

<svg
   xmlns:dc="http://purl.org/dc/elements/1.1/"
   xmlns:cc="http://creativecommons.org/ns#"
   xmlns:rdf="http://www.w3.org/1999/02/22-rdf-syntax-ns#"
   xmlns:svg="http://www.w3.org/2000/svg"
   xmlns="http://www.w3.org/2000/svg"
   xmlns:sodipodi="http://sodipodi.sourceforge.net/DTD/sodipodi-0.dtd"
   xmlns:inkscape="http://www.inkscape.org/namespaces/inkscape"
   width="744.09448819"
   height="1052.3622047"
   id="svg2"
   version="1.1"
   inkscape:version="0.48.1 r9760"
   sodipodi:docname="solid_wall.svg">
  <defs
     id="defs4">
    <inkscape:perspective
       sodipodi:type="inkscape:persp3d"
       inkscape:vp_x="0 : 526.18109 : 1"
       inkscape:vp_y="0 : 1000 : 0"
       inkscape:vp_z="744.09448 : 526.18109 : 1"
       inkscape:persp3d-origin="372.04724 : 350.78739 : 1"
       id="perspective2985" />
  </defs>
  <sodipodi:namedview
     id="base"
     pagecolor="#ffffff"
     bordercolor="#666666"
     borderopacity="1.0"
     inkscape:pageopacity="0.0"
     inkscape:pageshadow="2"
     inkscape:zoom="0.98994949"
     inkscape:cx="281.97851"
     inkscape:cy="460.99966"
     inkscape:document-units="px"
     inkscape:current-layer="layer1"
     showgrid="false"
     inkscape:window-width="1920"
     inkscape:window-height="1031"
     inkscape:window-x="0"
     inkscape:window-y="25"
     inkscape:window-maximized="1" />
  <metadata
     id="metadata7">
    <rdf:RDF>
      <cc:Work
         rdf:about="">
        <dc:format>image/svg+xml</dc:format>
        <dc:type
           rdf:resource="http://purl.org/dc/dcmitype/StillImage" />
        <dc:title></dc:title>
      </cc:Work>
    </rdf:RDF>
  </metadata>
  <g
     inkscape:label="Layer 1"
     inkscape:groupmode="layer"
     id="layer1">
    <path
       style="fill:#e0af8e;fill-opacity:1;stroke:none;stroke-width:1;stroke-opacity:1"
       d="M 166.28125 373.0625 C 165.36009 373.97587 164.46723 374.91407 163.5625 375.84375 L 163.5625 678.1875 C 164.94159 679.60461 166.33289 680.99591 167.75 682.375 L 470.09375 682.375 C 471.01913 681.47445 471.93452 680.57307 472.84375 679.65625 L 472.84375 374.375 C 472.41345 373.9411 471.99643 373.49276 471.5625 373.0625 L 166.28125 373.0625 z "
       id="rect3001"
       inkscape:export-filename="/home/larissa/gruppe26/graphics/solid_wall.png"
       inkscape:export-xdpi="14.5"
       inkscape:export-ydpi="14.5" />
    <path
       style="fill:#585858;fill-opacity:0.33854167;stroke:none"
       d="m 471.40625,373.0625 -37.125,40.71875 L 435,637.375 l -229.28125,-0.71875 -42.0625,41.625 c 1.34876,1.38426 2.70837,2.74554 4.09375,4.09375 l 302.34375,0 c 0.92538,-0.90055 1.84077,-1.80193 2.75,-2.71875 l 0,-305.28125 c -0.4303,-0.4339 -0.84732,-0.88224 -1.28125,-1.3125 z"
       id="path3006"
       inkscape:connector-curvature="0"
       sodipodi:nodetypes="ccccccccccc"
       inkscape:export-filename="/home/larissa/gruppe26/graphics/solid_wall.png"
       inkscape:export-xdpi="14.5"
       inkscape:export-ydpi="14.5" />
    <path
       sodipodi:nodetypes="ccccccccc"
       inkscape:connector-curvature="0"
       id="path3781"
       d="m 205.56488,636.60549 1.51634,-221.84766 227.23556,-0.7748 37.36398,-40.89396 c -1.34876,-1.38426 -305.27451,-0.0266 -305.27451,-0.0266 -0.92538,0.90055 -1.84077,1.80193 -2.75,2.71875 l -0.0974,302.82481 c 0.4303,0.4339 42.00599,-41.36919 42.00599,-41.36919 z"
       style="fill:#585858;fill-opacity:0.33854167;stroke:none"
       inkscape:export-filename="/home/larissa/gruppe26/graphics/solid_wall.png"
       inkscape:export-xdpi="14.5"
       inkscape:export-ydpi="14.5" />
    <path
       style="fill:#ffffff;fill-opacity:0.33854166;stroke:none"
       d="M 423.40625 372.5 C 337.35812 372.29786 166.40625 373.0625 166.40625 373.0625 C 165.48087 373.96305 164.56548 374.86443 163.65625 375.78125 L 163.5625 678.59375 C 163.5646 678.59587 163.7772 678.40613 163.78125 678.40625 C 163.74005 678.36403 163.69743 678.32352 163.65625 678.28125 L 205.5625 636.8125 L 205.5625 636.59375 L 207.09375 414.75 L 434.28125 413.96875 L 434.28125 413.78125 L 471.375 373.09375 C 470.61066 372.7556 451.75728 372.5666 423.40625 372.5 z "
       id="path3784"
       inkscape:export-filename="/home/larissa/gruppe26/graphics/solid_wall.png"
       inkscape:export-xdpi="14.5"
       inkscape:export-ydpi="14.5" />
    <path
       id="path3817"
       d="M 166.28125 373.0625 C 165.36009 373.97587 164.46723 374.91407 163.5625 375.84375 L 163.5625 678.1875 C 164.94159 679.60461 166.33289 680.99591 167.75 682.375 L 470.09375 682.375 C 471.01913 681.47445 471.93452 680.57307 472.84375 679.65625 L 472.84375 374.375 C 472.41345 373.9411 471.99643 373.49276 471.5625 373.0625 L 166.28125 373.0625 z "
       style="fill:none;fill-opacity:1;stroke:#000000;stroke-width:1;stroke-opacity:1"
       inkscape:export-filename="/home/larissa/gruppe26/graphics/solid_wall.png"
       inkscape:export-xdpi="14.5"
       inkscape:export-ydpi="14.5" />
  </g>
</svg>
