<?xml version="1.0" encoding="UTF-8" standalone="no"?>
<!-- Created with Inkscape (http://www.inkscape.org/) -->

<svg
   xmlns:dc="http://purl.org/dc/elements/1.1/"
   xmlns:cc="http://creativecommons.org/ns#"
   xmlns:rdf="http://www.w3.org/1999/02/22-rdf-syntax-ns#"
   xmlns:svg="http://www.w3.org/2000/svg"
   xmlns="http://www.w3.org/2000/svg"
   xmlns:sodipodi="http://sodipodi.sourceforge.net/DTD/sodipodi-0.dtd"
   xmlns:inkscape="http://www.inkscape.org/namespaces/inkscape"
   width="744.09448819"
   height="1052.3622047"
   id="svg2"
   version="1.1"
   inkscape:version="0.48.2 r9819"
   sodipodi:docname="bombup.svg">
  <defs
     id="defs4">
    <inkscape:perspective
       sodipodi:type="inkscape:persp3d"
       inkscape:vp_x="0 : 526.18109 : 1"
       inkscape:vp_y="0 : 1000 : 0"
       inkscape:vp_z="744.09448 : 526.18109 : 1"
       inkscape:persp3d-origin="372.04724 : 350.78739 : 1"
       id="perspective3771" />
    <filter
       inkscape:collect="always"
       id="filter3873">
      <feGaussianBlur
         inkscape:collect="always"
         stdDeviation="7.3157955"
         id="feGaussianBlur3875" />
    </filter>
  </defs>
  <sodipodi:namedview
     id="base"
     pagecolor="#ffffff"
     bordercolor="#666666"
     borderopacity="1.0"
     inkscape:pageopacity="0.0"
     inkscape:pageshadow="2"
     inkscape:zoom="0.48145766"
     inkscape:cx="638.77736"
     inkscape:cy="752.44422"
     inkscape:document-units="px"
     inkscape:current-layer="g3837"
     showgrid="false"
     inkscape:window-width="1333"
     inkscape:window-height="715"
     inkscape:window-x="-3"
     inkscape:window-y="-3"
     inkscape:window-maximized="1" />
  <metadata
     id="metadata7">
    <rdf:RDF>
      <cc:Work
         rdf:about="">
        <dc:format>image/svg+xml</dc:format>
        <dc:type
           rdf:resource="http://purl.org/dc/dcmitype/StillImage" />
        <dc:title></dc:title>
      </cc:Work>
    </rdf:RDF>
  </metadata>
  <g
     inkscape:label="Layer 1"
     inkscape:groupmode="layer"
     id="layer1">
    <rect
       style="fill:none;fill-opacity:1;stroke:none"
       id="rect3051"
       width="348.81128"
       height="441.70203"
       x="105.01054"
       y="159.40535"
       inkscape:export-filename="/home/philipp/code/gruppe26/graphics/bomb1.png"
       inkscape:export-xdpi="9.1416006"
       inkscape:export-ydpi="9.1416006" />
    <g
       id="g3837"
       transform="translate(-111.90741,-69.888245)"
       inkscape:export-filename="/home/philipp/workspace/Bomberman/gruppe26/graphics/bombup.png"
       inkscape:export-xdpi="5.9934096"
       inkscape:export-ydpi="5.9934096">
      <path
         sodipodi:type="arc"
         style="fill:#4d4d4d;fill-opacity:0.66145833;filter:url(#filter3873)"
         id="path3099"
         sodipodi:cx="415.92441"
         sodipodi:cy="353.96225"
         sodipodi:rx="246.64682"
         sodipodi:ry="246.64682"
         d="m 662.57123,353.96225 c 0,136.21928 -110.42754,246.64682 -246.64682,246.64682 -136.21928,0 -246.64682,-110.42754 -246.64682,-246.64682 0,-136.21928 110.42754,-246.64682 246.64682,-246.64682 136.21928,0 246.64682,110.42754 246.64682,246.64682 z"
         transform="translate(103.52551,103.95042)"
         inkscape:export-filename="/home/philipp/workspace/Bomberman/gruppe26/graphics/rangeup.png"
         inkscape:export-xdpi="47"
         inkscape:export-ydpi="47" />
      <path
         style="fill:#d45500;stroke:none"
         d="m 358.12443,268.54248 c -164.14468,569.13863 -82.07234,284.56932 0,0 z"
         id="path3831"
         inkscape:connector-curvature="0"
         sodipodi:nodetypes="cc" />
      <path
         sodipodi:nodetypes="ccccc"
         inkscape:connector-curvature="0"
         id="path4134"
         d="m 633.76648,283.58258 c -123.095,184.03268 -141.6682,199.23328 -141.6682,199.23328 0,0 -15.1936,-21.5182 -29.3942,-23.6311 51.67,-90.82728 138.5553,-201.49289 138.5553,-201.49289 z"
         style="fill:#ececec;stroke:#000000;stroke-width:1px;stroke-linecap:butt;stroke-linejoin:miter;stroke-opacity:1" />
      <rect
         style="fill:#4d4d4d;fill-opacity:0"
         id="rect3877"
         width="735.80823"
         height="650.62482"
         x="10.280753"
         y="46.317036"
         transform="translate(111.90741,69.888245)" />
      <path
         inkscape:connector-curvature="0"
         id="path4136"
         d="m 629.49498,280.16368 -141.9063,196.93758 c 2.7935,3.2829 4.5,5.7187 4.5,5.7187 0,0 18.5925,-15.2173 141.6875,-199.24998 l -4.2812,-3.4063 z"
         style="fill:#000000;fill-opacity:0.3372549;stroke:none" />
      <path
         inkscape:connector-curvature="0"
         style="opacity:0.9;fill:none;stroke:#000000;stroke-width:9.42112446"
         d="m 439.57661,435.78833 c 58.99993,0 106.83407,37.67107 106.83407,84.12769 0,13.72058 -4.19289,26.68369 -11.5924,38.12612 -68.43105,7.92257 -142.27873,-4.27507 -199.05805,-18.17983 -1.97563,-6.39541 -3.0177,-13.07216 -3.0177,-19.94629 0,-46.45662 47.83414,-84.12769 106.83408,-84.12769 z"
         id="path3937" />
      <path
         style="fill:none;stroke:#000000;stroke-width:5.86314487;stroke-linecap:butt;stroke-linejoin:miter;stroke-opacity:1"
         d="m 574.4284,480.30732 c 91.33427,-57.84504 126.34574,10.65566 126.34574,10.65566 l 0,0"
         id="path4126"
         inkscape:connector-curvature="0" />
      <path
         id="path3122"
         d="m 439.57661,435.78833 c 58.99993,0 106.83407,37.67107 106.83407,84.12769 0,13.72058 -4.19289,26.68369 -11.5924,38.12612 -68.43105,7.92257 -142.27873,-4.27507 -199.05805,-18.17983 -1.97563,-6.39541 -3.0177,-13.07216 -3.0177,-19.94629 0,-46.45662 47.83414,-84.12769 106.83408,-84.12769 z"
         style="fill:#ff00ff;fill-opacity:1;stroke:none"
         inkscape:connector-curvature="0" />
      <path
         inkscape:connector-curvature="0"
         style="fill:#000000;fill-opacity:0.42352941;stroke:none"
         d="m 342.35818,485.00734 c -6.17208,10.63704 -9.60513,22.46691 -9.60513,34.92435 0,6.87412 1.04207,13.55099 3.0177,19.9464 56.77931,13.90464 130.627,26.10229 199.05805,18.17971 2.41429,-3.73336 4.48531,-7.63523 6.18261,-11.66594 -64.7927,-4.30334 -149.9264,-18.57587 -198.65323,-61.38452 z"
         id="path3926" />
      <path
         inkscape:connector-curvature="0"
         id="path4128"
         d="m 574.4284,501.61865 c 91.33427,-57.84504 126.34574,10.65566 126.34574,10.65566 l 0,0"
         style="fill:none;stroke:#000000;stroke-width:5.86314487;stroke-linecap:butt;stroke-linejoin:miter;stroke-opacity:1" />
      <path
         style="fill:none;stroke:#000000;stroke-width:5.86314487;stroke-linecap:butt;stroke-linejoin:miter;stroke-opacity:1"
         d="m 569.86168,529.01892 c 91.33427,-57.84503 126.34574,10.65567 126.34574,10.65567 l 0,0"
         id="path4130"
         inkscape:connector-curvature="0" />
      <rect
         style="fill:#4d4d4d;fill-opacity:0;stroke-width:8"
         id="rect4164"
         width="691.6496"
         height="637.64691"
         x="68.541855"
         y="67.851944"
         transform="translate(111.90741,69.888245)" />
    </g>
    <rect
       style="fill:none;stroke:none;stroke-width:1;stroke-opacity:1"
       id="rect3948"
       width="403.98151"
       height="492.2551"
       x="61.272259"
       y="127.0472"
       inkscape:export-xdpi="9.1416006"
       inkscape:export-ydpi="9.1416006"
       inkscape:export-filename="/home/philipp/code/gruppe26/graphics/bomb1.png" />
  </g>
</svg>
