<?xml version="1.0" encoding="UTF-8" standalone="no"?>
<!-- Created with Inkscape (http://www.inkscape.org/) -->

<svg
   xmlns:dc="http://purl.org/dc/elements/1.1/"
   xmlns:cc="http://creativecommons.org/ns#"
   xmlns:rdf="http://www.w3.org/1999/02/22-rdf-syntax-ns#"
   xmlns:svg="http://www.w3.org/2000/svg"
   xmlns="http://www.w3.org/2000/svg"
   xmlns:sodipodi="http://sodipodi.sourceforge.net/DTD/sodipodi-0.dtd"
   xmlns:inkscape="http://www.inkscape.org/namespaces/inkscape"
   width="744.09448819"
   height="1052.3622047"
   id="svg2"
   version="1.1"
   inkscape:version="0.48.1 r9760"
   sodipodi:docname="WinningBomberman.svg">
  <defs
     id="defs4">
    <filter
       inkscape:collect="always"
       id="filter3776">
      <feGaussianBlur
         inkscape:collect="always"
         stdDeviation="2.1876413"
         id="feGaussianBlur3778" />
    </filter>
  </defs>
  <sodipodi:namedview
     id="base"
     pagecolor="#ffffff"
     bordercolor="#666666"
     borderopacity="1.0"
     inkscape:pageopacity="0.0"
     inkscape:pageshadow="2"
     inkscape:zoom="0.7"
     inkscape:cx="751.78804"
     inkscape:cy="540.08548"
     inkscape:document-units="px"
     inkscape:current-layer="layer1"
     showgrid="false"
     inkscape:window-width="1920"
     inkscape:window-height="1031"
     inkscape:window-x="0"
     inkscape:window-y="25"
     inkscape:window-maximized="1" />
  <metadata
     id="metadata7">
    <rdf:RDF>
      <cc:Work
         rdf:about="">
        <dc:format>image/svg+xml</dc:format>
        <dc:type
           rdf:resource="http://purl.org/dc/dcmitype/StillImage" />
        <dc:title></dc:title>
      </cc:Work>
    </rdf:RDF>
  </metadata>
  <g
     inkscape:label="Layer 1"
     inkscape:groupmode="layer"
     id="layer1">
    <path
       inkscape:connector-curvature="0"
       id="path3083"
       d="m 166.48771,526.14715 c 0.007,0.0662 0.005,0.13494 0.0124,0.20103 0.35331,3.27039 0.85831,6.49433 1.50457,9.6688 0.64626,3.17447 1.45641,6.29089 2.38198,9.35188 0.92556,3.06099 1.97794,6.06317 3.16916,8.9931 1.19121,2.92994 2.51937,5.78702 3.96257,8.56832 1.44321,2.78131 3.01535,5.48954 4.69689,8.10464 1.68153,2.61512 3.46899,5.13774 5.37519,7.56907 1.9062,2.43132 3.9083,4.76755 6.02552,6.99752 2.11722,2.22998 4.33638,4.34596 6.65096,6.35702 2.31458,2.01105 4.75012,3.906 7.2484,5.68056 2.49828,1.77455 5.05618,3.43886 7.7245,4.95934 2.66832,1.52048 5.44748,2.89611 8.27219,4.14495 1.80745,0.7991 3.67703,1.44008 5.54392,2.12205 l 292.13974,27.56691 c 1.96518,-0.32107 3.94557,-0.5969 5.87412,-1.04461 3.00845,-0.69841 5.96477,-1.53283 8.87041,-2.52734 2.90564,-0.99451 5.76083,-2.14803 8.54696,-3.42393 2.78612,-1.27591 5.50203,-2.68477 8.15194,-4.22736 2.64991,-1.54259 5.22571,-3.20612 7.72269,-5.00069 2.49698,-1.79456 4.93187,-3.71211 7.25922,-5.74394 2.32735,-2.03185 4.55515,-4.17558 6.69618,-6.42999 2.14103,-2.2544 4.19202,-4.62074 6.13002,-7.08299 1.93799,-2.46225 3.77715,-5.02045 5.49541,-7.67584 0.15859,-0.24511 0.29146,-0.5105 0.44811,-0.75718 l 18.32858,-194.23664 c -0.30504,-0.80803 -0.54334,-1.6491 -0.86772,-2.44693 -1.19121,-2.92994 -2.51937,-5.787 -3.96257,-8.56832 -1.44321,-2.78131 -3.01535,-5.48953 -4.69689,-8.10464 -1.68153,-2.6151 -3.46899,-5.13773 -5.37519,-7.56906 -1.9062,-2.43132 -3.93941,-4.77049 -6.05663,-7.00046 -2.11722,-2.22997 -4.33638,-4.34596 -6.65096,-6.35702 -2.31458,-2.01105 -4.71589,-3.93609 -7.21417,-5.71064 -2.49828,-1.77456 -5.09042,-3.40878 -7.75874,-4.92926 -2.66832,-1.52048 -5.41325,-2.9262 -8.23796,-4.17504 -2.67688,-1.18347 -5.43582,-2.21855 -8.2412,-3.14271 l -288.0641,-27.18233 c -2.92874,0.38308 -5.8326,0.8838 -8.68361,1.54565 -3.00846,0.69841 -5.96789,1.56585 -8.87353,2.56036 -2.90564,0.99451 -5.75772,2.11501 -8.54384,3.39092 -2.78613,1.2759 -5.50515,2.71778 -8.15506,4.26037 -2.64991,1.54259 -5.22571,3.20613 -7.72269,5.00069 -2.49699,1.79456 -4.93187,3.71211 -7.25922,5.74394 -2.32736,2.03185 -4.55515,4.17559 -6.69618,6.42999 -2.14103,2.2544 -4.19202,4.62074 -6.13002,7.08299 -1.938,2.46226 -3.77715,5.02045 -5.49541,7.67584 -1.71826,2.6554 -3.31364,5.40773 -4.79546,8.24156 -1.48181,2.83382 -2.8295,5.74661 -4.05816,8.74416 -0.159,0.3879 -0.2718,0.80176 -0.4264,1.19226 l -14.26594,151.183 z"
       style="fill:none;stroke:#000000;stroke-width:8"
       inkscape:transform-center-x="-14.174995"
       inkscape:transform-center-y="-203.31259"
       inkscape:export-filename="/home/larissa/gruppe26/graphics/victory.png"
       inkscape:export-xdpi="39.337559"
       inkscape:export-ydpi="39.337559" />
    <path
       style="fill:#ececec;fill-opacity:1;stroke:none"
       d="m 166.48771,526.14715 c 0.007,0.0662 0.005,0.13494 0.0124,0.20103 0.35331,3.27039 0.85831,6.49433 1.50457,9.6688 0.64626,3.17447 1.45641,6.29089 2.38198,9.35188 0.92556,3.06099 1.97794,6.06317 3.16916,8.9931 1.19121,2.92994 2.51937,5.78702 3.96257,8.56832 1.44321,2.78131 3.01535,5.48954 4.69689,8.10464 1.68153,2.61512 3.46899,5.13774 5.37519,7.56907 1.9062,2.43132 3.9083,4.76755 6.02552,6.99752 2.11722,2.22998 4.33638,4.34596 6.65096,6.35702 2.31458,2.01105 4.75012,3.906 7.2484,5.68056 2.49828,1.77455 5.05618,3.43886 7.7245,4.95934 2.66832,1.52048 5.44748,2.89611 8.27219,4.14495 1.80745,0.7991 3.67703,1.44008 5.54392,2.12205 l 292.13974,27.56691 c 1.96518,-0.32107 3.94557,-0.5969 5.87412,-1.04461 3.00845,-0.69841 5.96477,-1.53283 8.87041,-2.52734 2.90564,-0.99451 5.76083,-2.14803 8.54696,-3.42393 2.78612,-1.27591 5.50203,-2.68477 8.15194,-4.22736 2.64991,-1.54259 5.22571,-3.20612 7.72269,-5.00069 2.49698,-1.79456 4.93187,-3.71211 7.25922,-5.74394 2.32735,-2.03185 4.55515,-4.17558 6.69618,-6.42999 2.14103,-2.2544 4.19202,-4.62074 6.13002,-7.08299 1.93799,-2.46225 3.77715,-5.02045 5.49541,-7.67584 0.15859,-0.24511 0.29146,-0.5105 0.44811,-0.75718 l 18.32858,-194.23664 c -0.30504,-0.80803 -0.54334,-1.6491 -0.86772,-2.44693 -1.19121,-2.92994 -2.51937,-5.787 -3.96257,-8.56832 -1.44321,-2.78131 -3.01535,-5.48953 -4.69689,-8.10464 -1.68153,-2.6151 -3.46899,-5.13773 -5.37519,-7.56906 -1.9062,-2.43132 -3.93941,-4.77049 -6.05663,-7.00046 -2.11722,-2.22997 -4.33638,-4.34596 -6.65096,-6.35702 -2.31458,-2.01105 -4.71589,-3.93609 -7.21417,-5.71064 -2.49828,-1.77456 -5.09042,-3.40878 -7.75874,-4.92926 -2.66832,-1.52048 -5.41325,-2.9262 -8.23796,-4.17504 -2.67688,-1.18347 -5.43582,-2.21855 -8.2412,-3.14271 l -288.0641,-27.18233 c -2.92874,0.38308 -5.8326,0.8838 -8.68361,1.54565 -3.00846,0.69841 -5.96789,1.56585 -8.87353,2.56036 -2.90564,0.99451 -5.75772,2.11501 -8.54384,3.39092 -2.78613,1.2759 -5.50515,2.71778 -8.15506,4.26037 -2.64991,1.54259 -5.22571,3.20613 -7.72269,5.00069 -2.49699,1.79456 -4.93187,3.71211 -7.25922,5.74394 -2.32736,2.03185 -4.55515,4.17559 -6.69618,6.42999 -2.14103,2.2544 -4.19202,4.62074 -6.13002,7.08299 -1.938,2.46226 -3.77715,5.02045 -5.49541,7.67584 -1.71826,2.6554 -3.31364,5.40773 -4.79546,8.24156 -1.48181,2.83382 -2.8295,5.74661 -4.05816,8.74416 -0.159,0.3879 -0.2718,0.80176 -0.4264,1.19226 l -14.26594,151.183 z"
       id="rect3001"
       inkscape:connector-curvature="0"
       inkscape:transform-center-x="-14.174995"
       inkscape:transform-center-y="-203.31259"
       inkscape:export-filename="/home/larissa/gruppe26/graphics/victory.png"
       inkscape:export-xdpi="39.337559"
       inkscape:export-ydpi="39.337559" />
    <path
       inkscape:connector-curvature="0"
       id="path3075"
       d="m 223.27904,502.14939 c 0.005,0.0482 0.004,0.0983 0.01,0.14649 0.27208,2.38342 0.65794,4.73333 1.14972,7.04749 0.49179,2.31416 1.10646,4.58637 1.80767,6.81845 0.7012,2.23207 1.49747,4.42156 2.39781,6.55871 0.90032,2.13715 1.9033,4.22151 2.99247,6.2509 1.08918,2.0294 2.275,4.00581 3.54271,5.91461 1.26772,1.90883 2.61477,3.75047 4.05075,5.52584 1.43599,1.77539 2.94376,3.48169 4.53771,5.11082 1.59396,1.62913 3.2642,3.17543 5.00585,4.64547 1.74163,1.47004 3.57383,2.85575 5.45288,4.15389 1.87904,1.29812 3.8026,2.51605 5.80875,3.62942 2.00615,1.11337 4.09518,2.12147 6.21816,3.03726 1.35841,0.586 2.76315,1.05692 4.16595,1.5577 l 219.34994,20.69831 c 1.47447,-0.22978 2.96046,-0.42658 4.40717,-0.74872 2.25679,-0.50251 4.47417,-1.10423 6.65317,-1.82269 2.17901,-0.71845 4.3198,-1.55286 6.40849,-2.47658 2.08871,-0.92373 4.12442,-1.94446 6.1103,-3.06276 1.98589,-1.1183 3.9159,-2.32487 5.78646,-3.62708 1.87057,-1.30221 3.69426,-2.69415 5.437,-4.16959 1.74272,-1.47542 3.41051,-3.03258 5.0129,-4.67058 1.60241,-1.63796 3.13699,-3.35767 4.58656,-5.14751 1.44957,-1.78983 2.82472,-3.64978 4.10894,-5.5808 0.11854,-0.17823 0.21772,-0.37131 0.33478,-0.55069 l 13.3499,-141.47526 c -0.23068,-0.58933 -0.41132,-1.20262 -0.65648,-1.78457 -0.90034,-2.13714 -1.90331,-4.2215 -2.99248,-6.25088 -1.08917,-2.0294 -2.27499,-4.00582 -3.54271,-5.91463 -1.26772,-1.9088 -2.61477,-3.75045 -4.05076,-5.52585 -1.43597,-1.77538 -2.9671,-3.48388 -4.56106,-5.11301 -1.59396,-1.62912 -3.26421,-3.17542 -5.00585,-4.64547 -1.74164,-1.47004 -3.54821,-2.87761 -5.42725,-4.17573 -1.87904,-1.29812 -3.82823,-2.49422 -5.83438,-3.60759 -2.00615,-1.11337 -4.06956,-2.1433 -6.19252,-3.05909 -2.01188,-0.86787 -4.08502,-1.62779 -6.1928,-2.30699 l -216.2898,-20.40955 c -2.19762,0.27293 -4.37632,0.63164 -6.51502,1.10784 -2.2568,0.50251 -4.47644,1.12829 -6.65545,1.84674 -2.179,0.71845 -4.31754,1.52882 -6.40623,2.45254 -2.0887,0.92371 -4.12667,1.96851 -6.11256,3.08681 -1.9859,1.11831 -3.9159,2.32488 -5.78646,3.62708 -1.87056,1.30221 -3.69426,2.69414 -5.43699,4.16958 -1.74273,1.47544 -3.41051,3.03261 -5.01291,4.67058 -1.60241,1.63797 -3.13698,3.35769 -4.58655,5.14753 -1.44958,1.78983 -2.82473,3.64977 -4.10896,5.58078 -1.28421,1.93102 -2.47598,3.93291 -3.58234,5.99442 -1.10635,2.0615 -2.11185,4.18083 -3.02784,6.36215 -0.11854,0.28228 -0.20232,0.58356 -0.31756,0.86774 L 223.2793,502.14938 z"
       style="fill:#e9ddaf;fill-opacity:1;stroke:none"
       inkscape:transform-center-x="-16.19354"
       inkscape:transform-center-y="-212.89453"
       inkscape:export-filename="/home/larissa/gruppe26/graphics/victory.png"
       inkscape:export-xdpi="39.337559"
       inkscape:export-ydpi="39.337559" />
    <path
       style="fill:none;stroke:#000000;stroke-width:2"
       d="m 223.27904,502.14939 c 0.005,0.0482 0.004,0.0983 0.01,0.14649 0.27208,2.38342 0.65794,4.73333 1.14972,7.04749 0.49179,2.31416 1.10646,4.58637 1.80767,6.81845 0.7012,2.23207 1.49747,4.42156 2.39781,6.55871 0.90032,2.13715 1.9033,4.22151 2.99247,6.2509 1.08918,2.0294 2.275,4.00581 3.54271,5.91461 1.26772,1.90883 2.61477,3.75047 4.05075,5.52584 1.43599,1.77539 2.94376,3.48169 4.53771,5.11082 1.59396,1.62913 3.2642,3.17543 5.00585,4.64547 1.74163,1.47004 3.57383,2.85575 5.45288,4.15389 1.87904,1.29812 3.8026,2.51605 5.80875,3.62942 2.00615,1.11337 4.09518,2.12147 6.21816,3.03726 1.35841,0.586 2.76315,1.05692 4.16595,1.5577 l 219.34994,20.69831 c 1.47447,-0.22978 2.96046,-0.42658 4.40717,-0.74872 2.25679,-0.50251 4.47417,-1.10423 6.65317,-1.82269 2.17901,-0.71845 4.3198,-1.55286 6.40849,-2.47658 2.08871,-0.92373 4.12442,-1.94446 6.1103,-3.06276 1.98589,-1.1183 3.9159,-2.32487 5.78646,-3.62708 1.87057,-1.30221 3.69426,-2.69415 5.437,-4.16959 1.74272,-1.47542 3.41051,-3.03258 5.0129,-4.67058 1.60241,-1.63796 3.13699,-3.35767 4.58656,-5.14751 1.44957,-1.78983 2.82472,-3.64978 4.10894,-5.5808 0.11854,-0.17823 0.21772,-0.37131 0.33478,-0.55069 l 13.3499,-141.47526 c -0.23068,-0.58933 -0.41132,-1.20262 -0.65648,-1.78457 -0.90034,-2.13714 -1.90331,-4.2215 -2.99248,-6.25088 -1.08917,-2.0294 -2.27499,-4.00582 -3.54271,-5.91463 -1.26772,-1.9088 -2.61477,-3.75045 -4.05076,-5.52585 -1.43597,-1.77538 -2.9671,-3.48388 -4.56106,-5.11301 -1.59396,-1.62912 -3.26421,-3.17542 -5.00585,-4.64547 -1.74164,-1.47004 -3.54821,-2.87761 -5.42725,-4.17573 -1.87904,-1.29812 -3.82823,-2.49422 -5.83438,-3.60759 -2.00615,-1.11337 -4.06956,-2.1433 -6.19252,-3.05909 -2.01188,-0.86787 -4.08502,-1.62779 -6.1928,-2.30699 l -216.2898,-20.40955 c -2.19762,0.27293 -4.37632,0.63164 -6.51502,1.10784 -2.2568,0.50251 -4.47644,1.12829 -6.65545,1.84674 -2.179,0.71845 -4.31754,1.52882 -6.40623,2.45254 -2.0887,0.92371 -4.12667,1.96851 -6.11256,3.08681 -1.9859,1.11831 -3.9159,2.32488 -5.78646,3.62708 -1.87056,1.30221 -3.69426,2.69414 -5.43699,4.16958 -1.74273,1.47544 -3.41051,3.03261 -5.01291,4.67058 -1.60241,1.63797 -3.13698,3.35769 -4.58655,5.14753 -1.44958,1.78983 -2.82473,3.64977 -4.10896,5.58078 -1.28421,1.93102 -2.47598,3.93291 -3.58234,5.99442 -1.10635,2.0615 -2.11185,4.18083 -3.02784,6.36215 -0.11854,0.28228 -0.20232,0.58356 -0.31756,0.86774 L 223.2793,502.14938 z"
       id="path3081"
       inkscape:connector-curvature="0"
       inkscape:transform-center-x="-16.19354"
       inkscape:transform-center-y="-212.89453"
       inkscape:export-filename="/home/larissa/gruppe26/graphics/victory.png"
       inkscape:export-xdpi="39.337559"
       inkscape:export-ydpi="39.337559" />
    <path
       style="fill:#000000;fill-opacity:0.125;stroke:none"
       d="m 167.70552,513.24147 -1.21835,12.9114 c 0.007,0.0661 0.006,0.12351 0.0135,0.1896 0.35331,3.27039 0.85687,6.50957 1.50313,9.68404 0.64626,3.17447 1.45868,6.26675 2.38425,9.32774 0.92557,3.06099 1.97789,6.06381 3.1691,8.99375 1.19122,2.92993 2.51662,5.81622 3.95982,8.59752 1.44321,2.78132 3.0156,5.487 4.69713,8.10211 1.68153,2.61511 3.46894,5.13836 5.37514,7.56969 1.9062,2.43132 3.91069,4.74215 6.02791,6.97213 2.11722,2.22997 4.335,4.36056 6.64958,6.37162 2.31458,2.01105 4.75066,3.90029 7.24894,5.67485 2.49827,1.77454 5.05552,3.44585 7.72384,4.96632 2.66832,1.52048 5.44802,2.8904 8.27273,4.13924 1.80744,0.79909 3.67685,1.44198 5.54374,2.12395 l 292.13974,27.56691 c 1.96518,-0.32107 3.94575,-0.5988 5.8743,-1.04652 3.00845,-0.69841 5.96423,-1.52711 8.86987,-2.52162 2.90564,-0.99451 5.76149,-2.15502 8.54762,-3.43092 1.39306,-0.63795 2.75361,-1.293 4.11209,-1.99752 C 415.98601,621.60804 264.10748,594.70533 167.70547,513.24147 z"
       id="path3973"
       inkscape:connector-curvature="0"
       inkscape:transform-center-x="13.885135"
       inkscape:transform-center-y="-103.23957"
       inkscape:export-filename="/home/larissa/gruppe26/graphics/victory.png"
       inkscape:export-xdpi="39.337559"
       inkscape:export-ydpi="39.337559" />
    <rect
       style="opacity:0.9;fill:#f2f2f2;fill-opacity:0;stroke:none"
       id="rect3978"
       width="877.14276"
       height="931.42859"
       x="-9.1100092"
       y="131.80196"
       inkscape:export-filename="/home/philipp/code/gruppe26/graphics/bomberman.png"
       inkscape:export-xdpi="5.1780825"
       inkscape:export-ydpi="5.1780825"
       transform="matrix(0.99557741,0.09394476,-0.09394476,0.99557741,0,0)"
       inkscape:transform-center-y="-42.857143" />
    <path
       style="fill:none;stroke:#000000;stroke-width:5.2084775;stroke-linecap:butt;stroke-linejoin:miter;stroke-miterlimit:4;stroke-opacity:1;stroke-dasharray:none;stroke-dashoffset:0"
       d="M 291.42857,459.45911 C 378.57143,261.30827 360,465.21932 360,465.21932"
       id="path3019"
       inkscape:connector-curvature="0"
       inkscape:export-filename="/home/larissa/gruppe26/graphics/victory.png"
       inkscape:export-xdpi="39.337559"
       inkscape:export-ydpi="39.337559" />
    <path
       style="fill:none;stroke:#000000;stroke-width:5.15147305;stroke-linecap:butt;stroke-linejoin:miter;stroke-miterlimit:4;stroke-opacity:1;stroke-dasharray:none"
       d="m 410.59923,468.2769 c 87.14286,-193.8373 68.57143,5.63482 68.57143,5.63482"
       id="path3019-7"
       inkscape:connector-curvature="0"
       inkscape:export-filename="/home/larissa/gruppe26/graphics/victory.png"
       inkscape:export-xdpi="39.337559"
       inkscape:export-ydpi="39.337559" />
    <path
       style="fill:none;stroke:#000000;stroke-width:3.4000001;stroke-linecap:butt;stroke-linejoin:miter;stroke-miterlimit:4;stroke-opacity:1;stroke-dasharray:none"
       d="m 324.28571,508.07646 c 51.42858,72.85715 104.28572,11.42858 104.28572,11.42858"
       id="path3813"
       inkscape:connector-curvature="0"
       inkscape:export-filename="/home/larissa/gruppe26/graphics/victory.png"
       inkscape:export-xdpi="39.337559"
       inkscape:export-ydpi="39.337559" />
    <path
       style="fill:none;stroke:#000000;stroke-width:3.4000001;stroke-linecap:butt;stroke-linejoin:miter;stroke-miterlimit:4;stroke-opacity:1;stroke-dasharray:none"
       d="m 327.14286,508.07646 c 100,10 100,10 100,10"
       id="path3815"
       inkscape:connector-curvature="0"
       inkscape:export-filename="/home/larissa/gruppe26/graphics/victory.png"
       inkscape:export-xdpi="39.337559"
       inkscape:export-ydpi="39.337559" />
    <flowRoot
       xml:space="preserve"
       id="flowRoot3825"
       style="fill:black;stroke:none;stroke-opacity:1;stroke-width:1px;stroke-linejoin:miter;stroke-linecap:butt;fill-opacity:1;font-family:UnBatang;font-style:normal;font-weight:normal;font-size:64px;line-height:125%;letter-spacing:0px;word-spacing:0px;-inkscape-font-specification:UnBatang;font-stretch:normal;font-variant:normal"><flowRegion
         id="flowRegion3827"><rect
           id="rect3829"
           width="660"
           height="142.85715"
           x="28.571428"
           y="549.50507" /></flowRegion><flowPara
         id="flowPara3831" /></flowRoot>    <flowRoot
       xml:space="preserve"
       id="flowRoot3833"
       style="fill:#00ff00;stroke:none;stroke-opacity:1;stroke-width:1px;stroke-linejoin:miter;stroke-linecap:butt;fill-opacity:1;font-family:UnBatang;font-style:normal;font-weight:normal;font-size:64px;line-height:125%;letter-spacing:0px;word-spacing:0px;-inkscape-font-specification:UnBatang;font-stretch:normal;font-variant:normal"><flowRegion
         id="flowRegion3835"><rect
           id="rect3837"
           width="652.85712"
           height="154.28572"
           x="38.57143"
           y="566.64789"
           style="fill:#00ff00" /></flowRegion><flowPara
         id="flowPara3839" /></flowRoot>    <text
       transform="scale(0.95523174,1.0468664)"
       sodipodi:linespacing="125%"
       id="text3004"
       y="663.13879"
       x="40.57473"
       style="font-size:160.95005797999999686px;font-style:normal;font-variant:normal;font-weight:normal;font-stretch:normal;line-height:125%;letter-spacing:0px;word-spacing:0px;fill:none;fill-opacity:1;stroke:#ffffff;font-family:'文泉驛等寬微米黑';-inkscape-font-specification:'文泉驛等寬微米黑';stroke-width:4.29999997000000000;stroke-miterlimit:4;stroke-dasharray:none;filter:url(#filter3776)"
       xml:space="preserve"
       inkscape:export-filename="/home/larissa/gruppe26/graphics/victory.png"
       inkscape:export-xdpi="39.337559"
       inkscape:export-ydpi="39.337559"><tspan
         y="663.13879"
         x="40.57473"
         id="tspan3006"
         sodipodi:role="line">Victory!</tspan></text>
    <text
       xml:space="preserve"
       style="font-size:160.95005797999999686px;font-style:normal;font-variant:normal;font-weight:normal;font-stretch:normal;line-height:125%;letter-spacing:0px;word-spacing:0px;fill:#000000;fill-opacity:1;stroke:none;font-family:'文泉驛等寬微米黑';-inkscape-font-specification:'文泉驛等寬微米黑'"
       x="40.57473"
       y="663.13879"
       id="text3841"
       sodipodi:linespacing="125%"
       transform="scale(0.95523174,1.0468664)"
       inkscape:export-filename="/home/larissa/gruppe26/graphics/victory.png"
       inkscape:export-xdpi="39.337559"
       inkscape:export-ydpi="39.337559"><tspan
         sodipodi:role="line"
         id="tspan3843"
         x="40.57473"
         y="663.13879">Victory!</tspan></text>
    <path
       sodipodi:type="arc"
       style="opacity:0.45307444;fill:#ffaaaa;fill-opacity:1;stroke:none"
       id="path3466"
       sodipodi:cx="293.57144"
       sodipodi:cy="501.64789"
       sodipodi:rx="20.714285"
       sodipodi:ry="20.714285"
       d="m 314.28573,501.64789 a 20.714285,20.714285 0 1 1 -41.42857,0 20.714285,20.714285 0 1 1 41.42857,0 z"
       transform="matrix(1,0,0,1.0344828,-18.571429,-26.583918)"
       inkscape:export-filename="/home/larissa/gruppe26/graphics/victory.png"
       inkscape:export-xdpi="39.337559"
       inkscape:export-ydpi="39.337559" />
    <path
       sodipodi:type="arc"
       style="opacity:0.45307444;fill:#ffaaaa;fill-opacity:1;stroke:none"
       id="path3468"
       sodipodi:cx="490"
       sodipodi:cy="526.64789"
       sodipodi:rx="22.857143"
       sodipodi:ry="24.285715"
       d="m 512.85714,526.64789 a 22.857143,24.285715 0 1 1 -45.71428,0 22.857143,24.285715 0 1 1 45.71428,0 z"
       transform="translate(-12.857143,-9.9999996)"
       inkscape:export-filename="/home/larissa/gruppe26/graphics/victory.png"
       inkscape:export-xdpi="39.337559"
       inkscape:export-ydpi="39.337559" />
    <rect
       style="opacity:0.79611648999999995;fill:none;stroke:none;stroke-width:4.30000019000000044;stroke-miterlimit:4;stroke-opacity:1;stroke-dasharray:none;stroke-dashoffset:0"
       id="rect3799"
       width="901.42859"
       height="607.14288"
       x="-71.428574"
       y="209.50504"
       inkscape:export-filename="/home/larissa/gruppe26/graphics/victory.png"
       inkscape:export-xdpi="39.337559"
       inkscape:export-ydpi="39.337559" />
  </g>
</svg>
